<?xml version="1.0" encoding="utf-8"?>
<!-- Generator: Adobe Illustrator 27.5.0, SVG Export Plug-In . SVG Version: 6.00 Build 0)  -->
<svg version="1.1" xmlns="http://www.w3.org/2000/svg" xmlns:xlink="http://www.w3.org/1999/xlink" x="0px" y="0px"
	 viewBox="0 0 940 500" style="enable-background:new 0 0 940 500;" xml:space="preserve">
<g id="BACKGROUND">
	<rect x="0.246" style="fill:#F9DFBB;" width="939.754" height="500"/>
</g>
<g id="OBJECTS">
	<g>
		<defs>
			<rect id="SVGID_1_" width="940" height="500"/>
		</defs>
		<clipPath id="SVGID_00000104695429474369223570000017834087306242177178_">
			<use xlink:href="#SVGID_1_"  style="overflow:visible;"/>
		</clipPath>
		<path style="clip-path:url(#SVGID_00000104695429474369223570000017834087306242177178_);fill:#FFF6EB;" d="M935.86,167.834
			c-21.437-0.543-43.383-1.015-63.731,5.753c-48.68,16.191-78.294,70.089-127.848,83.368c-33.135,8.879-70.258-2.112-101.607,11.814
			c-26.212,11.644-45.347,38.504-73.289,45.471c-46.203,11.521-74.292-40.886-105.289-64.637
			c-14.795-11.337-35.038-12.649-53.036-7.801c-22.53,6.069-43.823,18.78-67.579,19.835c-31.699,1.408-36.113-29.944-60.988-41.143
			c-19.451-8.757-42.362-3.151-63.132-8.01c-35.235-8.242-55.382-42.134-80.929-64.607C78.744,95.372-11.557,128.852-49.706,189.544
			c-13.211,21.018-12.562,32.352-12.562,55.981c0,45.839,0,91.677,0,137.516l1043.503,9.38V168.984
			C966.11,168.601,950.985,168.217,935.86,167.834z"/>
	</g>
	<g>
		<defs>
			<rect id="SVGID_00000000905711979916257970000003011662619393135781_" width="940" height="500"/>
		</defs>
		<clipPath id="SVGID_00000047022414320335770440000012784497798411892140_">
			<use xlink:href="#SVGID_00000000905711979916257970000003011662619393135781_"  style="overflow:visible;"/>
		</clipPath>
		<g style="clip-path:url(#SVGID_00000047022414320335770440000012784497798411892140_);">
			<path style="fill:#EDDB74;" d="M245.714,369.966c-3.793,4.83-10.825,5.255-16.966,5.269
				c-89.913,0.206-184.343,2.774-274.256,2.98c-3.826-13.76-6.467-27.849-7.883-42.061c-0.337-3.379,1.09-8.757-1.448-11.013
				c3.95-2.14,10.636-3.205,14.965-2.006c23.794-5.483,47.749-10.989,72.143-12.072c72.02-3.199,140.766,32.111,212.81,34.709
				C245.921,355.076,245.816,360.624,245.714,369.966z"/>
			<path style="fill:#EDDB74;" d="M749.897,383.055h230.217c4,0,11.676-0.546,15.676-0.546v-50.342
				c-114.685-33.44-240.882-25.85-350.732,21.095C681.636,361.65,713.32,374.668,749.897,383.055z"/>
			<path style="fill:#EDDB74;" d="M586.433,363.495c-17.626-7.295-35.252-14.589-52.878-21.884
				c-13.344-5.522-26.748-11.065-40.761-14.557c-55.434-13.815-113.16,5.584-166.867,25.06
				c59.237,29.072,126.334,43.981,191.933,36.841C541.065,386.429,567.325,376.901,586.433,363.495z"/>
			<path style="fill:#D8C850;" d="M1000.395,512.094c0.949-4.919,1.899-71.52,2.848-76.439c2.817-14.597-0.68-31.692-3.033-46.342
				c-58.712-4.372-116.56-17.987-174.516-26.748c-58.786-8.887-110.503-26.229-170-29.103
				c-56.882-2.748-117.597,24.843-173.774,29.56c-44.035,3.697-85.322-14.633-127.729-22.972
				c-44.807-8.811-72.279-10.173-117.385-4.182c-38.336,5.092-93.569,27.982-132.778,26.698
				c-53.974-1.768-105.736-30.399-158.489-39.798c-2.353,30.249,2.202,177.419,0.501,189.328"/>
		</g>
		<g style="clip-path:url(#SVGID_00000047022414320335770440000012784497798411892140_);">
			<path style="fill:#9B7D00;" d="M281.615,514.055c64.497-67.497,144.637-101.676,210.03-118.913
				c159.372-42.01,324.076-31.558,487.383-31.099c30,0.084,43-1.479,43-1.479v149.53L281.615,514.055z"/>
		</g>
	</g>
	<g>
		<defs>
			<rect id="SVGID_00000063596489563379297430000015838516932310698663_" width="940" height="500"/>
		</defs>
		<clipPath id="SVGID_00000145020341496589783240000017769720257996394171_">
			<use xlink:href="#SVGID_00000063596489563379297430000015838516932310698663_"  style="overflow:visible;"/>
		</clipPath>
		<g style="clip-path:url(#SVGID_00000145020341496589783240000017769720257996394171_);">
			<path style="fill:#1C4732;" d="M409.426,424.27c-2.1-4.798-4.342-9.786-8.409-13.086c-4.314-3.501-10.186-4.607-15.724-4.154
				c-2.217,0.181-4.801,0.444-7.439,0.816c-5.22,0.736-10.444-1.94-12.598-6.751c-3.303-7.38-11.301-12.883-19.459-11.919
				c-3.06,0.362-6.354,1.432-9.071-0.021c-2.24-1.197-3.327-3.735-4.583-5.942c-5.829-10.249-18.14-15.7-29.929-15.486
				c-7.859,0.143-15.473,2.476-22.526,6.034c-5.523,2.786-12.09,2.343-17.118-1.261c-7.404-5.307-17.482-7.176-26.645-5.671
				c-12.588,2.069-25.864,13.02-35.685,21.163c22.875,2.25,44.688,4.074,67.497,7.208
				C316.801,401.942,366.261,411.93,409.426,424.27z"/>
			<path style="fill:#1C4732;" d="M146.048,395.042c-0.628-6.947-3.138-13.715-7.192-19.392
				c-9.909-13.873-28.04-19.943-45.083-19.523c-13.871,0.342-26.734,2.832-38.263,9.673c-3.727,2.211-8.469,1.624-11.565-1.408
				c-1.355-1.327-2.735-2.623-4.283-3.709c-6.208-4.353-14.542-4.788-21.83-2.699c-3.622,1.038-6.707,2.442-9.63,4.162
				c-4.99,2.935-11.389,1.76-15.134-2.654c-2.168-2.555-4.166-4.775-4.644-5.187c-18.353-15.822-41.733-4.595-55.137,11.821
				c-6.357,7.785-10.538,16.335-12.283,26.191c-0.415,2.343-1.683,22.255-3.887,22.74
				C-9.262,398.877,70.706,397.447,146.048,395.042z"/>
		</g>
	</g>
	<g>
		<defs>
			<polygon id="SVGID_00000070101275879053934790000007257077771839832726_" points="940,500 0,500 0,0 943.401,0 			"/>
		</defs>
		<clipPath id="SVGID_00000061436868415713512260000005078878231811914174_">
			<use xlink:href="#SVGID_00000070101275879053934790000007257077771839832726_"  style="overflow:visible;"/>
		</clipPath>
		<g style="clip-path:url(#SVGID_00000061436868415713512260000005078878231811914174_);">
			<path style="fill:#B7A018;" d="M-50.199,516.127l314.982-1.847c0,0,27.727-7.775,34.384-14.28
				c8.752-8.554,20.834-18.284,36.539-30.349c33.166-25.479,75.861-46.126,75.861-46.126c-1.959-0.595-3.942-1.185-5.948-1.768
				C282.971,386.074,74.747,372.448-51.151,391.46L-50.199,516.127z"/>
			<g>
				<path style="fill:#B7A018;" d="M223.178,454.911c13.027,1.392,28.258,2.856,41.286,4.248
					c23.264,2.486,46.697,5.006,69.062,11.877c-4.744,2.342-34.134,27.644-48.509,43.019c-0.444,0-109.25,1-109.25,1l-10.25-60
					C165.516,455.055,223.18,455.155,223.178,454.911z"/>
				<g>
					<path style="fill:none;stroke:#937E02;stroke-miterlimit:10;" d="M174.7,452.016c5.754,27.111,10.482,62.706,10.482,63.372"/>
					<path style="fill:none;stroke:#937E02;stroke-miterlimit:10;" d="M186.7,452.016c0.316,2.039,10.482,62.706,10.482,63.372"/>
					<path style="fill:none;stroke:#937E02;stroke-miterlimit:10;" d="M199.7,452.016c0.316,2.039,10.482,62.706,10.482,63.372"/>
					<path style="fill:none;stroke:#937E02;stroke-linecap:round;stroke-linejoin:round;stroke-miterlimit:10;" d="M213.2,452.016
						c0.316,2.039,10.482,62.706,10.482,63.372"/>
					<path style="fill:none;stroke:#937E02;stroke-linecap:round;stroke-linejoin:round;stroke-miterlimit:10;" d="M227.683,456.722
						c0.316,2.039,9.5,58,9.5,58.667"/>
					<path style="fill:none;stroke:#937E02;stroke-linecap:round;stroke-linejoin:round;stroke-miterlimit:10;" d="M239.849,459.055
						c0.316,2.039,9.333,55.667,9.333,56.333"/>
					<path style="fill:none;stroke:#937E02;stroke-linecap:round;stroke-linejoin:round;stroke-miterlimit:10;" d="M253.849,461.055
						c0.316,2.039,8.667,52.333,8.667,53"/>
					<path style="fill:none;stroke:#937E02;stroke-linecap:round;stroke-linejoin:round;stroke-miterlimit:10;" d="M269.516,464.388
						c0.316,2.039,7.667,49,7.667,49.667"/>
					<path style="fill:none;stroke:#937E02;stroke-linecap:round;stroke-linejoin:round;stroke-miterlimit:10;" d="M283.266,464.388
						c0.243,1.571,4.661,29.797,6.678,42.986"/>
					<path style="fill:none;stroke:#937E02;stroke-linecap:round;stroke-linejoin:round;stroke-miterlimit:10;" d="M300.766,467.638
						c0.176,1.136,2.095,15.12,3.76,27.404"/>
					<path style="fill:none;stroke:#937E02;stroke-linecap:round;stroke-linejoin:round;stroke-miterlimit:10;" d="M317.016,470.388
						c0.036,0.234,0.756,5.04,1.696,11.329"/>
				</g>
			</g>
			<g>
				<path style="fill:#937E02;" d="M130.516,421.055c0,0,2.667-27.25,4-37.333c34.276,1.304,77.079,3.016,115.25,8.833
					c-7.642,17.963-18.947,44.393-26.589,62.356c-0.077,0.548-57.661,0.144-57.661,0.144L130.516,421.055z"/>
				<path style="fill:none;stroke:#776300;stroke-linecap:round;stroke-linejoin:round;stroke-miterlimit:10;" d="M135.016,388.097
					c-0.25,0.5,75.147,5.105,111.167,8.958"/>
				<path style="fill:none;stroke:#776300;stroke-linecap:round;stroke-linejoin:round;stroke-miterlimit:10;" d="M134.683,397.763
					c-0.25,0.5,71.897,5.855,107.917,9.708"/>
				<path style="fill:none;stroke:#776300;stroke-linecap:round;stroke-linejoin:round;stroke-miterlimit:10;" d="M132.261,409.385
					c-0.238,0.506,69.739,4.901,105.839,7.919"/>
				<path style="fill:none;stroke:#776300;stroke-linecap:round;stroke-linejoin:round;stroke-miterlimit:10;" d="M130.891,420.93
					c0.234-0.311,63.748,3.792,101.984,6.794"/>
				<path style="fill:none;stroke:#776300;stroke-linecap:round;stroke-linejoin:round;stroke-miterlimit:10;" d="M145.513,434.367
					c18.243,0.966,55.694,2.687,83.778,4.575"/>
				<path style="fill:none;stroke:#776300;stroke-linecap:round;stroke-linejoin:round;stroke-miterlimit:10;" d="M158.018,446.792
					c18.559,0.097,44.88,0.209,66.761,0.634"/>
			</g>
			<g>
				<path style="fill:#99850B;" d="M134.516,383.722l-3.667,37.833l-181.25,18.5c-0.75-0.5-1-47.47-0.75-48.595
					c7.5-1.458,17.108-2.234,26.167-3.238C21.19,383.105,74.325,380.378,134.516,383.722z"/>
				<g>
					<path style="fill:none;stroke:#B7A018;stroke-linecap:round;stroke-linejoin:round;stroke-miterlimit:10;" d="M37.893,383.911
						c0.095,2.569,0.585,5.687,0.831,8.246c1.226,12.772,2.451,25.545,3.677,38.317"/>
					<path style="fill:none;stroke:#B7A018;stroke-linecap:round;stroke-linejoin:round;stroke-miterlimit:10;" d="M22.846,384.688
						c0.095,2.569,3.037,35.1,4.263,47.872"/>
					<path style="fill:none;stroke:#B7A018;stroke-linecap:round;stroke-linejoin:round;stroke-miterlimit:10;" d="M7.392,386.383
						c0.095,2.569,0.341,5.129,0.586,7.688c1.226,12.772,2.451,26.379,3.677,39.151"/>
					<path style="fill:none;stroke:#B7A018;stroke-linecap:round;stroke-linejoin:round;stroke-miterlimit:10;" d="M-9.797,386.8
						c0.095,2.569,0.341,5.129,0.586,7.688c1.226,12.772,2.451,27.295,3.677,40.067"/>
					<path style="fill:none;stroke:#B7A018;stroke-linecap:round;stroke-linejoin:round;stroke-miterlimit:10;" d="M-25.589,388.551
						c0.095,2.569,0.341,5.129,0.586,7.688c1.226,12.772,2.451,27.378,3.677,40.15"/>
					<path style="fill:none;stroke:#B7A018;stroke-linecap:round;stroke-linejoin:round;stroke-miterlimit:10;" d="M-43.574,390.368
						c0.095,2.569,3.111,35.062,4.337,47.835"/>
					
						<line style="fill:none;stroke:#B7A018;stroke-linecap:round;stroke-linejoin:round;stroke-miterlimit:10;" x1="52.872" y1="383.18" x2="57.246" y2="428.751"/>
					
						<line style="fill:none;stroke:#B7A018;stroke-linecap:round;stroke-linejoin:round;stroke-miterlimit:10;" x1="70.256" y1="383.18" x2="74.174" y2="426.694"/>
					
						<line style="fill:none;stroke:#B7A018;stroke-linecap:round;stroke-linejoin:round;stroke-miterlimit:10;" x1="83.008" y1="382.847" x2="86.998" y2="425.388"/>
					
						<line style="fill:none;stroke:#B7A018;stroke-linecap:round;stroke-linejoin:round;stroke-miterlimit:10;" x1="95.849" y1="382.847" x2="99.474" y2="423.472"/>
					
						<line style="fill:none;stroke:#B7A018;stroke-linecap:round;stroke-linejoin:round;stroke-miterlimit:10;" x1="109.651" y1="383.586" x2="112.683" y2="422.417"/>
					
						<line style="fill:none;stroke:#B7A018;stroke-linecap:round;stroke-linejoin:round;stroke-miterlimit:10;" x1="122.735" y1="383.586" x2="125.016" y2="421.055"/>
				</g>
			</g>
			<g>
				<path style="fill:#AA9011;" d="M50.058,429.801c6.277,30.933,6.792,86.254,6.792,86.254c0,0.667,118.667-1.667,118.667-1.667
					s-7.383-42.754-10-59.333c0,0-23.131-24.346-35-34C105.15,422.663,50.058,429.801,50.058,429.801z"/>
				<g>
					
						<line style="fill:none;stroke:#937E02;stroke-linecap:round;stroke-linejoin:round;stroke-miterlimit:10;" x1="53.487" y1="441.092" x2="147.766" y2="438.943"/>
					
						<line style="fill:none;stroke:#937E02;stroke-linecap:round;stroke-linejoin:round;stroke-miterlimit:10;" x1="55.059" y1="429.825" x2="137.607" y2="427.944"/>
					
						<line style="fill:none;stroke:#937E02;stroke-linecap:round;stroke-linejoin:round;stroke-miterlimit:10;" x1="55.059" y1="454.055" x2="159.266" y2="450.574"/>
					
						<line style="fill:none;stroke:#937E02;stroke-linecap:round;stroke-linejoin:round;stroke-miterlimit:10;" x1="55.059" y1="468.055" x2="165.516" y2="465.055"/>
					
						<line style="fill:none;stroke:#937E02;stroke-linecap:round;stroke-linejoin:round;stroke-miterlimit:10;" x1="57.454" y1="482.055" x2="167.911" y2="479.055"/>
					
						<line style="fill:none;stroke:#937E02;stroke-linecap:round;stroke-linejoin:round;stroke-miterlimit:10;" x1="57.454" y1="496.663" x2="167.911" y2="493.663"/>
					
						<line style="fill:none;stroke:#937E02;stroke-linecap:round;stroke-linejoin:round;stroke-miterlimit:10;" x1="57.454" y1="509.349" x2="172.966" y2="506.212"/>
				</g>
			</g>
			<g>
				<path style="fill:none;stroke:#99850B;stroke-miterlimit:10;" d="M36.754,430.538c1.785,28.872,4.048,57.714,6.787,86.511"/>
				<path style="fill:none;stroke:#99850B;stroke-miterlimit:10;" d="M20.083,430.538c1.785,28.872,4.048,57.714,6.786,86.511"/>
				<path style="fill:none;stroke:#99850B;stroke-miterlimit:10;" d="M6.131,430.538c1.785,28.872,4.048,57.714,6.787,86.511"/>
				<path style="fill:none;stroke:#99850B;stroke-miterlimit:10;" d="M-11.059,430.538c1.785,28.872,4.048,57.714,6.786,86.511"/>
				<path style="fill:none;stroke:#99850B;stroke-miterlimit:10;" d="M-30.244,430.538c1.785,28.872,4.048,57.714,6.787,86.511"/>
				<path style="fill:none;stroke:#99850B;stroke-miterlimit:10;" d="M-48.192,430.538c1.785,28.872,4.048,57.714,6.786,86.511"/>
			</g>
			<g>
				<path style="fill:#AA9011;" d="M222.183,455.388l27.552-62.88c0,0,12.32,1.293,27.781,3.38
					c17.087,2.306,37.901,5.51,47.75,7.417c0.756,0.146,1.571,0.301,2.439,0.463c9.633,1.803,25.842,4.592,40.978,8.12
					c23.08,5.379,44.583,12.28,44.583,12.28l-79.741,46.868L222.183,455.388z"/>
				<path style="fill:none;stroke:#B7A018;stroke-width:1.5;stroke-linecap:round;stroke-linejoin:round;stroke-miterlimit:10;" d="
					M232.933,457.472c8.027-17.158,18.1-43.337,28.646-62.979"/>
				<path style="fill:none;stroke:#B7A018;stroke-width:1.5;stroke-linecap:round;stroke-linejoin:round;stroke-miterlimit:10;" d="
					M245.183,457.722c8.027-17.158,17.35-41.9,27.896-61.542"/>
				<path style="fill:none;stroke:#B7A018;stroke-width:1.5;stroke-linecap:round;stroke-linejoin:round;stroke-miterlimit:10;" d="
					M255.516,462.722c8.027-17.158,19.142-45.4,29.687-65.042"/>
				<path style="fill:none;stroke:#B7A018;stroke-width:1.5;stroke-linecap:round;stroke-linejoin:round;stroke-miterlimit:10;" d="
					M270.516,462.722c8.027-17.158,17.954-43.275,28.5-62.917"/>
				<path style="fill:none;stroke:#B7A018;stroke-width:1.5;stroke-linecap:round;stroke-linejoin:round;stroke-miterlimit:10;" d="
					M286.016,465.055c8.027-17.158,17.579-43.233,28.125-62.875"/>
				<path style="fill:none;stroke:#B7A018;stroke-width:1.5;stroke-linecap:round;stroke-linejoin:round;stroke-miterlimit:10;" d="
					M299.183,467.388c7.955-17.004,18.103-43.297,28.549-62.885"/>
				<path style="fill:none;stroke:#B7A018;stroke-width:1.5;stroke-linecap:round;stroke-linejoin:round;stroke-miterlimit:10;" d="
					M316.183,470.388c7.92-16.929,18.014-43.065,28.411-62.626"/>
				<path style="fill:none;stroke:#B7A018;stroke-width:1.5;stroke-linecap:round;stroke-linejoin:round;stroke-miterlimit:10;" d="
					M333.516,470.388c7.573-16.187,17.134-40.793,27.047-60.019"/>
				<path style="fill:none;stroke:#B7A018;stroke-width:1.5;stroke-linecap:round;stroke-linejoin:round;stroke-miterlimit:10;" d="
					M355.772,456.355c5.768-13.327,12.257-28.887,18.956-42.36"/>
				<path style="fill:none;stroke:#B7A018;stroke-width:1.5;stroke-linecap:round;stroke-linejoin:round;stroke-miterlimit:10;" d="
					M379.857,442.225c3.442-7.967,7.054-16.172,10.746-23.875"/>
			</g>
		</g>
	</g>
	<circle style="fill:#EF920F;" cx="561.498" cy="263.504" r="29.778"/>
	<g>
		<g>
			<path style="fill:#CA5B17;" d="M152.146,339.36l-1.97,45.119l7.645,0.337c0.185-1.498,0.107-45.456,0.107-45.456"/>
			<path style="fill:#1C4732;" d="M182.118,347.466c0,0,12.617-8.337,7.66-19.151c-3.444-7.514-11.126-9.775-16.982-9.124
				c-1.061-4.082-5.999-15.585-19.303-16.587c-8.179-0.616-16.807,2.895-21.911,9.242c-4.73,5.882-3.087,15.342-3.087,15.342
				c-4.063,5.999-4.902,18.043-1.076,23.729c5.519,8.202,16.613,12.027,26.039,9.12c0,0,7.481,6.205,18.296,2.057
				C180.735,358.649,182.118,347.466,182.118,347.466z"/>
			<g>
				<path style="fill:#EF920F;" d="M154.061,313.727c0,0.926-0.751,1.677-1.678,1.677s-1.678-0.751-1.678-1.677
					c0-0.927,0.751-1.678,1.678-1.678S154.061,312.801,154.061,313.727z"/>
				<path style="fill:#EF920F;" d="M141.864,325.558c-0.825,0.421-1.836,0.094-2.257-0.732c-0.421-0.825-0.093-1.836,0.732-2.257
					c0.825-0.421,1.836-0.093,2.257,0.732C143.017,324.127,142.689,325.137,141.864,325.558z"/>
				<circle style="fill:#EF920F;" cx="154.061" cy="329.555" r="1.678"/>
			</g>
		</g>
		<g>
			<path style="fill:#CA5B17;" d="M195.422,340.21l-2.043,46.791l7.714,0.387c0.185-1.498,0.111-47.178,0.111-47.178"/>
			<path style="fill:#34684E;" d="M169.745,347.466c0,0-12.617-8.337-7.661-19.151c3.444-7.514,11.126-9.775,16.982-9.124
				c1.061-4.082,5.999-15.585,19.303-16.587c8.179-0.616,16.807,2.895,21.911,9.242c4.73,5.882,3.087,15.342,3.087,15.342
				c4.063,5.999,7.035,16.828,2.419,24.458c-6.749,11.156-17.957,11.298-27.383,8.391c0,0-7.481,6.205-18.296,2.057
				C171.128,358.649,169.745,347.466,169.745,347.466z"/>
			<g>
				<path style="fill:#EF920F;" d="M190.095,324.064c0,0.927-0.751,1.678-1.678,1.678c-0.926,0-1.677-0.751-1.677-1.678
					c0-0.926,0.751-1.677,1.677-1.677C189.344,322.387,190.095,323.138,190.095,324.064z"/>
				<path style="fill:#EF920F;" d="M178.115,336.044c0,0.926-0.751,1.677-1.678,1.677c-0.926,0-1.677-0.751-1.677-1.677
					c0-0.927,0.751-1.678,1.677-1.678C177.364,334.366,178.115,335.117,178.115,336.044z"/>
				<circle style="fill:#EF920F;" cx="209.799" cy="324.064" r="1.678"/>
				<path style="fill:#EF920F;" d="M199.462,312.049c0,0.927-0.751,1.678-1.678,1.678c-0.926,0-1.678-0.751-1.678-1.678
					c0-0.926,0.751-1.677,1.678-1.677C198.711,310.372,199.462,311.123,199.462,312.049z"/>
				<path style="fill:#EF920F;" d="M199.462,337.824c0,0.926-0.751,1.678-1.678,1.678c-0.926,0-1.678-0.751-1.678-1.678
					c0-0.926,0.751-1.678,1.678-1.678C198.711,336.147,199.462,336.898,199.462,337.824z"/>
			</g>
		</g>
	</g>
	<g>
		<path style="fill:#28523E;" d="M757.695,258.005c-5.136-3.851-8.081-7.976-11.447-14.797c-2.819-5.714-0.273-12.879,5.952-15.811
			c3.436,8.555,5.845,15.988,11.625,21.867c1.543,1.569,1.933,1.898,1.933,1.898"/>
		<g>
			<path style="fill:#FFC05C;" d="M748.73,258.867l15.881-15.61l15.549,9.409l27.553-40.266l5.595,13.133l5.174,22.629
				l-24.289,32.842c-5.152,6.966-15.076,8.223-21.802,2.761L748.73,258.867z"/>
			<path style="fill:none;stroke:#E58800;stroke-width:0.81;stroke-linecap:round;stroke-linejoin:round;stroke-miterlimit:10;" d="
				M753.787,263.469c5.202-5.408,10.936-10.989,15.768-16.729"/>
			
				<line style="fill:none;stroke:#E58800;stroke-width:0.81;stroke-linecap:round;stroke-linejoin:round;stroke-miterlimit:10;" x1="752.496" y1="255.846" x2="757.029" y2="260.134"/>
			<path style="fill:none;stroke:#E58800;stroke-width:0.81;stroke-linecap:round;stroke-linejoin:round;stroke-miterlimit:10;" d="
				M756.2,252.527c1.574,1.487,2.743,2.533,4.395,3.931"/>
			<path style="fill:none;stroke:#E58800;stroke-width:0.81;stroke-linecap:round;stroke-linejoin:round;stroke-miterlimit:10;" d="
				M759.867,248.614c1.521,1.239,3.043,2.478,4.564,3.716"/>
			
				<line style="fill:none;stroke:#E58800;stroke-width:0.81;stroke-linecap:round;stroke-linejoin:round;stroke-miterlimit:10;" x1="763.161" y1="245.855" x2="767.152" y2="248.886"/>
		</g>
		<g>
			<path style="fill:#FFC05C;" d="M886.735,214.194v66.059c0,4.571-3.706,8.277-8.276,8.277h-63.53
				c-4.579,0-8.288-3.719-8.276-8.298l0.174-67.536c9.12-3.507,22.719-6.675,31.839-10.182c-0.161,0,13.93,0.48,13.93,0.48
				S875.207,208.13,886.735,214.194z"/>
			<g>
				
					<path style="fill:none;stroke:#E58800;stroke-width:0.81;stroke-linecap:round;stroke-linejoin:round;stroke-miterlimit:10;" d="
					M857.435,204.472c0,5.244-5.095,9.496-11.38,9.496c-6.285,0-11.38-4.251-11.38-9.496"/>
				
					<line style="fill:none;stroke:#E58800;stroke-width:0.81;stroke-linecap:round;stroke-linejoin:round;stroke-miterlimit:10;" x1="846.129" y1="208.758" x2="846.129" y2="213.678"/>
				
					<path style="fill:none;stroke:#E58800;stroke-width:0.81;stroke-linecap:round;stroke-linejoin:round;stroke-miterlimit:10;" d="
					M849.852,207.913c1.243,1.171,2.54,2.284,3.885,3.335"/>
				
					<path style="fill:none;stroke:#E58800;stroke-width:0.81;stroke-linecap:round;stroke-linejoin:round;stroke-miterlimit:10;" d="
					M852.791,205.304c1.218,0.829,2.508,1.554,3.85,2.163"/>
				
					<path style="fill:none;stroke:#E58800;stroke-width:0.81;stroke-linecap:round;stroke-linejoin:round;stroke-miterlimit:10;" d="
					M840.827,206.656c-1.243,1.171-2.54,2.284-3.885,3.335"/>
				
					<line style="fill:none;stroke:#E58800;stroke-width:0.81;stroke-linecap:round;stroke-linejoin:round;stroke-miterlimit:10;" x1="839.146" y1="204.361" x2="834.999" y2="206.58"/>
				
					<line style="fill:none;stroke:#E58800;stroke-width:0.81;stroke-linecap:round;stroke-linejoin:round;stroke-miterlimit:10;" x1="840.939" y1="212.541" x2="843.046" y2="208.432"/>
			</g>
		</g>
		<g>
			<g>
				<path style="fill:#EF920F;" d="M761.44,233.282c-6.107-6.794-12.652-21.486-15.215-27.568c-0.64-1.517-0.173-3.254,1.105-4.293
					c0.53-0.43,1.028-0.866,1.544-1.298c1.424-1.194,3.52-1.111,4.869,0.166c8.06,7.625,16.102,14.86,24.956,21.639"/>
				<path style="fill:none;stroke:#D37300;stroke-width:0.8868;stroke-linecap:round;stroke-miterlimit:10;" d="M747.159,206.637
					c2.012-1.493,4.818-3.576,6.83-5.068"/>
				<path style="fill:none;stroke:#D37300;stroke-width:0.8868;stroke-linecap:round;stroke-miterlimit:10;" d="M748.73,210.309
					c2.012-1.493,5.792-4.703,7.804-6.196"/>
				<path style="fill:none;stroke:#D37300;stroke-width:0.8868;stroke-linecap:round;stroke-miterlimit:10;" d="M750.611,214.159
					c2.011-1.493,7.463-6.03,9.475-7.522"/>
				<path style="fill:none;stroke:#D37300;stroke-width:0.8868;stroke-linecap:round;stroke-miterlimit:10;" d="M752.411,218.144
					c2.012-1.493,8.771-7.068,10.783-8.561"/>
				<path style="fill:none;stroke:#D37300;stroke-width:0.8868;stroke-linecap:round;stroke-miterlimit:10;" d="M754.53,222.817
					c2.012-1.493,10.171-8.65,12.182-10.142"/>
				<path style="fill:none;stroke:#D37300;stroke-width:0.8868;stroke-linecap:round;stroke-miterlimit:10;" d="M749.73,200.151
					c0.472,0.493,20.725,20.652,20.725,20.652"/>
				
					<line style="fill:none;stroke:#D37300;stroke-width:0.8868;stroke-linecap:round;stroke-miterlimit:10;" x1="747.159" y1="202.106" x2="761.957" y2="224.221"/>
			</g>
			<g>
				<path style="fill:#EF920F;" d="M769.696,227.833c-3.635-8.381-5.179-24.391-5.679-30.971c-0.125-1.642,0.869-3.141,2.41-3.72
					c0.639-0.24,1.25-0.495,1.876-0.741c1.729-0.68,3.69,0.064,4.565,1.703c5.223,9.789,10.553,19.202,16.797,28.44"/>
				<path style="fill:none;stroke:#D37300;stroke-width:0.8868;stroke-linecap:round;stroke-miterlimit:10;" d="M764.611,198.033
					c2.381-0.777,5.704-1.861,8.085-2.639"/>
				<path style="fill:none;stroke:#D37300;stroke-width:0.8868;stroke-linecap:round;stroke-miterlimit:10;" d="M764.935,202.014
					c2.381-0.777,6.985-2.621,9.367-3.398"/>
				<path style="fill:none;stroke:#D37300;stroke-width:0.8868;stroke-linecap:round;stroke-miterlimit:10;" d="M765.497,206.262
					c2.381-0.777,8.991-3.349,11.372-4.126"/>
				<path style="fill:none;stroke:#D37300;stroke-width:0.8868;stroke-linecap:round;stroke-miterlimit:10;" d="M765.939,210.613
					c2.381-0.777,10.561-3.919,12.942-4.696"/>
				<path style="fill:none;stroke:#D37300;stroke-width:0.8868;stroke-linecap:round;stroke-miterlimit:10;" d="M766.465,215.716
					c2.381-0.777,12.39-4.974,14.772-5.751"/>
				<path style="fill:none;stroke:#D37300;stroke-width:0.8868;stroke-linecap:round;stroke-miterlimit:10;" d="M769.108,192.699
					c0.292,0.617,13.099,26.162,13.099,26.162"/>
				
					<line style="fill:none;stroke:#D37300;stroke-width:0.8868;stroke-linecap:round;stroke-miterlimit:10;" x1="766.048" y1="193.737" x2="773.063" y2="219.405"/>
			</g>
			<g>
				<path style="fill:#EF920F;" d="M780.16,218.618c0.502-9.122,6.29-24.128,8.789-30.236c0.623-1.524,2.183-2.42,3.821-2.247
					c0.679,0.071,1.339,0.117,2.009,0.177c1.85,0.166,3.271,1.709,3.319,3.566c0.287,11.091,0.839,21.895,2.286,32.951"/>
				<path style="fill:none;stroke:#D37300;stroke-width:0.8868;stroke-linecap:round;stroke-miterlimit:10;" d="M788.955,189.695
					c2.477,0.371,5.933,0.889,8.411,1.261"/>
				<path style="fill:none;stroke:#D37300;stroke-width:0.8868;stroke-linecap:round;stroke-miterlimit:10;" d="M787.462,193.4
					c2.477,0.371,7.42,0.784,9.897,1.155"/>
				<path style="fill:none;stroke:#D37300;stroke-width:0.8868;stroke-linecap:round;stroke-miterlimit:10;" d="M786.063,197.45
					c2.477,0.371,9.539,1.031,12.016,1.402"/>
				<path style="fill:none;stroke:#D37300;stroke-width:0.8868;stroke-linecap:round;stroke-miterlimit:10;" d="M784.51,201.538
					c2.477,0.371,11.198,1.225,13.675,1.596"/>
				<path style="fill:none;stroke:#D37300;stroke-width:0.8868;stroke-linecap:round;stroke-miterlimit:10;" d="M782.696,206.337
					c2.477,0.371,13.306,1.1,15.783,1.471"/>
				<path style="fill:none;stroke:#D37300;stroke-width:0.8868;stroke-linecap:round;stroke-miterlimit:10;" d="M795.365,186.939
					c-0.016,0.682-0.001,29.258-0.001,29.258"/>
				
					<line style="fill:none;stroke:#D37300;stroke-width:0.8868;stroke-linecap:round;stroke-miterlimit:10;" x1="792.164" y1="186.498" x2="786.944" y2="212.59"/>
			</g>
			<g>
				<path style="fill:#EF920F;" d="M800.625,215.543c-3.028-8.619-3.426-24.698-3.455-31.298c-0.007-1.646,1.091-3.071,2.669-3.539
					c0.654-0.194,1.281-0.404,1.924-0.605c1.773-0.555,3.677,0.327,4.432,2.024c4.511,10.136,9.156,19.906,14.726,29.566"/>
				<path style="fill:none;stroke:#D37300;stroke-width:0.8868;stroke-linecap:round;stroke-miterlimit:10;" d="M797.678,185.456
					c2.431-0.605,5.822-1.45,8.253-2.055"/>
				<path style="fill:none;stroke:#D37300;stroke-width:0.8868;stroke-linecap:round;stroke-miterlimit:10;" d="M797.717,189.45
					c2.431-0.605,7.154-2.116,9.585-2.722"/>
				<path style="fill:none;stroke:#D37300;stroke-width:0.8868;stroke-linecap:round;stroke-miterlimit:10;" d="M797.975,193.728
					c2.431-0.605,9.207-2.699,11.638-3.305"/>
				<path style="fill:none;stroke:#D37300;stroke-width:0.8868;stroke-linecap:round;stroke-miterlimit:10;" d="M798.106,198.098
					c2.431-0.605,10.813-3.155,13.244-3.761"/>
				<path style="fill:none;stroke:#D37300;stroke-width:0.8868;stroke-linecap:round;stroke-miterlimit:10;" d="M798.266,203.227
					c2.431-0.605,12.714-4.078,15.144-4.683"/>
				<path style="fill:none;stroke:#D37300;stroke-width:0.8868;stroke-linecap:round;stroke-miterlimit:10;" d="M802.544,180.456
					c0.247,0.636,11.199,27.029,11.199,27.029"/>
				
					<line style="fill:none;stroke:#D37300;stroke-width:0.8868;stroke-linecap:round;stroke-miterlimit:10;" x1="799.419" y1="181.274" x2="804.584" y2="207.377"/>
			</g>
			<g>
				<path style="fill:#CA5B17;" d="M749.73,221.247l9.517,23.692l72.361-29.874l-7.634-22.239
					C822.978,192.825,749.73,221.247,749.73,221.247z"/>
				
					<line style="fill:none;stroke:#AA3D00;stroke-width:0.8868;stroke-linecap:round;stroke-linejoin:round;stroke-miterlimit:10;" x1="753.13" y1="228.636" x2="825.844" y2="199.779"/>
				
					<line style="fill:none;stroke:#AA3D00;stroke-width:0.8868;stroke-linecap:round;stroke-linejoin:round;stroke-miterlimit:10;" x1="756.677" y1="237.504" x2="828.726" y2="208.314"/>
				
					<line style="fill:none;stroke:#AA3D00;stroke-width:0.8868;stroke-linecap:round;stroke-linejoin:round;stroke-miterlimit:10;" x1="775.52" y1="220.397" x2="778.698" y2="228.045"/>
				
					<line style="fill:none;stroke:#AA3D00;stroke-width:0.8868;stroke-linecap:round;stroke-linejoin:round;stroke-miterlimit:10;" x1="794.253" y1="204.213" x2="797.098" y2="210.975"/>
			</g>
			
				<path style="fill:none;stroke:#AA3D00;stroke-width:0.8868;stroke-linecap:round;stroke-linejoin:round;stroke-miterlimit:10;" d="
				M797.159,203.535c2.176,4.84,4.093,9.796,5.74,14.84"/>
			
				<path style="fill:none;stroke:#AA3D00;stroke-width:0.8868;stroke-linecap:round;stroke-linejoin:round;stroke-miterlimit:10;" d="
				M772.785,221.721c1.69,4.963,3.567,9.862,5.625,14.684"/>
		</g>
		<path style="fill:#28523E;" d="M835.384,232.697l-7.492-14.382c-0.792-1.487-1.825-2.849-3.14-3.902
			c-6.007-4.814-11.101,0.55-11.398,5.667c-0.208,3.588,1.337,7.024,2.933,10.245c0.933,1.883,1.908,3.795,2.593,5.776
			c1.529,4.426,5.217,6.386,9.847,5.688c0.251-0.038-0.24,0.06,0,0C830.737,241.29,835.384,232.697,835.384,232.697z"/>
		<g>
			<g>
				<g>
					<rect x="838.722" y="188.584" style="fill:#EA7468;" width="14.779" height="12.71"/>
					
						<ellipse transform="matrix(0.7071 -0.7071 0.7071 0.7071 105.4567 657.2575)" style="fill:#EA7468;" cx="846.108" cy="201.331" rx="7.388" ry="7.388"/>
				</g>
				<g>
					<path style="fill:#EF8B7B;" d="M846.09,198.191L846.09,198.191c-7.133,0-12.969-5.836-12.969-12.969v-5.986
						c0-0.491,0.028-0.975,0.081-1.452c0.727-6.456,6.245-11.517,12.888-11.517l0,0c6.687,0,12.234,5.129,12.902,11.648
						c0.044,0.435,0.067,0.875,0.067,1.321v5.986C859.059,192.355,853.223,198.191,846.09,198.191z"/>
					<g>
						<g>
							<g>
								<path style="fill:#5C1A25;" d="M842.67,182.292c0,0.315-0.255,0.57-0.57,0.57s-0.57-0.255-0.57-0.57
									c0-0.315,0.255-0.57,0.57-0.57S842.67,181.977,842.67,182.292z"/>
								<path style="fill:#5C1A25;" d="M850.968,182.292c0,0.315-0.255,0.57-0.57,0.57c-0.315,0-0.57-0.255-0.57-0.57
									c0-0.315,0.255-0.57,0.57-0.57C850.712,181.722,850.968,181.977,850.968,182.292z"/>
							</g>
							<path style="fill:none;stroke:#D64B3C;stroke-width:0.7601;stroke-linecap:round;stroke-miterlimit:10;" d="M845.986,181.971
								c-0.151,0.384-0.302,0.768-0.453,1.152c-0.204,0.519-0.411,1.047-0.453,1.603c-0.043,0.556,0.102,1.154,0.509,1.535
								c0.279,0.261,0.65,0.397,1.01,0.525"/>
						</g>
						<g>
							<circle style="fill:#D64B3C;" cx="838.537" cy="184.557" r="1.663"/>
							<circle style="fill:#D64B3C;" cx="853.454" cy="184.557" r="1.663"/>
						</g>
						<path style="fill:#FFF6EB;" d="M850.047,187.476c-0.314,2.143-2.211,3.066-3.554,3.211c-1.342,0.145-2.903-0.911-3.929-2.879
							C844.837,188.53,847.645,188.75,850.047,187.476z"/>
					</g>
					<g>
						<path style="fill:#EF8B7B;" d="M862.432,182.862c0,1.679-1.361,3.04-3.04,3.04c-1.679,0-3.04-1.361-3.04-3.04
							c0-1.679,1.361-3.04,3.04-3.04C861.071,179.822,862.432,181.183,862.432,182.862z"/>
						<path style="fill:none;stroke:#D64B3C;stroke-width:0.6463;stroke-linecap:round;stroke-miterlimit:10;" d="M858.804,181.398
							c0.661-0.469,1.55-0.205,2.013,0.598"/>
					</g>
					<g>
						<path style="fill:#EF8B7B;" d="M835.576,182.862c0,1.679-1.361,3.04-3.04,3.04c-1.679,0-3.04-1.361-3.04-3.04
							c0-1.679,1.361-3.04,3.04-3.04C834.215,179.822,835.576,181.183,835.576,182.862z"/>
						<path style="fill:none;stroke:#D64B3C;stroke-width:0.6463;stroke-linecap:round;stroke-miterlimit:10;" d="M832.884,181.398
							c-0.661-0.469-1.55-0.205-2.013,0.598"/>
					</g>
					<g>
						<path style="fill:#5C1A25;" d="M859.04,177.197l0.04,1.965c-2.621,1.487-6.824,1.01-9.989,0.887
							c-4.253-0.166-8.41-2.522-8.781-2.743"/>
						<path style="fill:#5C1A25;" d="M859.088,179.13l0.037,4.709c-0.533-0.228-0.918-0.697-1.281-1.149
							c-0.555-0.692-1.28-2.432-1.128-3.306"/>
						<path style="fill:#5C1A25;" d="M832.865,179.869c-0.025,0,0.302-0.005,0.277-0.005c3.381,1.182,6.813-0.346,9.61-2.048
							c0.288-0.175,0.66-0.208,0.819-0.505c-0.148,0-10.735-0.167-10.735-0.167c0,0.049,0.03-0.039,0.03,0.01L832.865,179.869z"/>
						<path style="fill:#5C1A25;" d="M832.863,179.13l-0.036,4.709c0.533-0.228,0.918-0.697,1.281-1.149
							c0.555-0.692,1.28-2.432,1.128-3.306"/>
						<path style="fill:#5C1A25;" d="M832.884,177.784c0.742-6.456,6.373-11.517,13.151-11.517l0,0
							c6.824,0,12.484,5.129,13.165,11.648"/>
					</g>
				</g>
			</g>
			<g>
				<g>
					<path style="fill:#380E12;" d="M878.229,176.421c0,1.497-14.119,2.71-31.536,2.71c-17.417,0-31.535-1.213-31.535-2.71
						c0-0.172,0-1.245,0-1.245s16.117-1.465,31.535-1.465c15.752,0,31.536,1.554,31.536,1.554S878.229,176.277,878.229,176.421z"/>
					<ellipse style="fill:#CA5B17;" cx="846.694" cy="175.265" rx="31.535" ry="2.71"/>
				</g>
				<g>
					<path style="fill:#CA5B17;" d="M860.348,176.322h-28.971v-9.358c0-3.565,2.904-6.771,6.456-6.456
						c2.284,0.202,6.803,1.218,9.095,1.171c3.063-0.063,4-1.063,6.965-1.171c3.563-0.131,6.456,2.89,6.456,6.456V176.322z"/>
					<rect x="831.342" y="171.667" style="fill:#5C1A25;" width="29.042" height="4.655"/>
					
						<line style="fill:none;stroke:#AA3D00;stroke-width:0.8868;stroke-linecap:round;stroke-linejoin:round;stroke-miterlimit:10;" x1="831.711" y1="168.046" x2="858.65" y2="168.046"/>
					
						<line style="fill:none;stroke:#AA3D00;stroke-width:0.8868;stroke-linecap:round;stroke-linejoin:round;stroke-miterlimit:10;" x1="835.554" y1="163.317" x2="852.413" y2="163.317"/>
				</g>
			</g>
		</g>
		<g>
			<path style="fill:#FFC05C;" d="M825.696,247.849c11.246,9.015,53.028,34.634,60.186,33.683
				c12.595-1.674,19.377,2.298,25.232-8.978c3.567-6.87,5.153-22.853-11.5-46c-6.892-9.579-16.088-15.64-27.716-17.65
				c-1.524-0.264-3.885,0.576-3.138,1.932c-3.234,10.4-4.348,18.524-0.863,28.843c3.883,2.28,8.124,3.879,11.436,6.93
				c0,0-38.821-16.374-42.109-16.79L825.696,247.849z"/>
			<path style="fill:none;stroke:#E58800;stroke-width:0.81;stroke-linecap:round;stroke-linejoin:round;stroke-miterlimit:10;" d="
				M837.072,230.553c13.899,4.711,30.259,10.257,44.158,14.969"/>
			<path style="fill:none;stroke:#E58800;stroke-width:0.81;stroke-linecap:round;stroke-linejoin:round;stroke-miterlimit:10;" d="
				M884.711,281.533c-19.086-6.956-43.316-20.79-59.015-33.683c1.471-1.804,10.253-16.009,11.376-17.296"/>
			<path style="fill:none;stroke:#E58800;stroke-width:0.81;stroke-linecap:round;stroke-linejoin:round;stroke-miterlimit:10;" d="
				M831.524,252.137c0,0,8.425-12.457,11.479-19.381"/>
			<path style="fill:none;stroke:#E58800;stroke-width:0.81;stroke-linecap:round;stroke-linejoin:round;stroke-miterlimit:10;" d="
				M828.414,244.306c1.88,1.205,3.76,2.411,5.64,3.616"/>
			
				<line style="fill:none;stroke:#E58800;stroke-width:0.81;stroke-linecap:round;stroke-linejoin:round;stroke-miterlimit:10;" x1="831.234" y1="239.446" x2="837.44" y2="242.895"/>
			
				<line style="fill:none;stroke:#E58800;stroke-width:0.81;stroke-linecap:round;stroke-linejoin:round;stroke-miterlimit:10;" x1="833.27" y1="236.323" x2="839.25" y2="239.869"/>
			
				<line style="fill:none;stroke:#E58800;stroke-width:0.81;stroke-linecap:round;stroke-linejoin:round;stroke-miterlimit:10;" x1="835.384" y1="233.123" x2="841.437" y2="235.949"/>
			<path style="fill:none;stroke:#E58800;stroke-width:0.81;stroke-linecap:round;stroke-linejoin:round;stroke-miterlimit:10;" d="
				M878.563,212.082c-0.453,6.693,0.106,13.454,1.651,19.982"/>
			<path style="fill:none;stroke:#E58800;stroke-width:0.81;stroke-linecap:round;stroke-linejoin:round;stroke-miterlimit:10;" d="
				M881.761,243.74c1.209,1.346,2.417,2.691,3.626,4.037"/>
			<path style="fill:none;stroke:#E58800;stroke-width:0.81;stroke-linecap:round;stroke-linejoin:round;stroke-miterlimit:10;" d="
				M882.894,243.782c2.769,1.137,5.405,2.598,7.836,4.345"/>
		</g>
		<g>
			<polygon style="fill:#28523E;" points="880.38,313.544 814.095,313.544 812.838,287.828 882.006,287.828 			"/>
			<path style="fill:#28523E;" d="M846.683,301.535l-4.284,69.183l-6.357,102.664h-20.1c0,0-1.652-58.736-2.99-102.989
				c-0.451-14.915-2.199-26.851-2.504-35.672c-0.667-19.333,0.988-46.908,0.988-46.908h3.763"/>
			<path style="fill:#28523E;" d="M882.006,287.828l0.109,17.894c0,0,0.514,17.347,0.333,26.667
				c-0.375,19.35-2.583,38.917-2.583,38.917l-0.466,12.74l-2.42,89.338h-20.1c0,0-5.09-62.81-4.264-86.827
				c0.115-3.357,0.141-12.394,0-15.75c-0.192-4.556-6.375-69.27-6.375-69.27"/>
			
				<line style="fill:none;stroke:#193326;stroke-width:0.8868;stroke-linecap:round;stroke-linejoin:round;stroke-miterlimit:10;" x1="813.577" y1="292.483" x2="881.23" y2="292.483"/>
			
				<line style="fill:none;stroke:#193326;stroke-width:0.8868;stroke-linecap:round;stroke-linejoin:round;stroke-miterlimit:10;" x1="846.24" y1="292.483" x2="846.24" y2="312.954"/>
			
				<path style="fill:none;stroke:#193326;stroke-width:0.8868;stroke-linecap:round;stroke-linejoin:round;stroke-miterlimit:10;" d="
				M846.683,308.519L846.683,308.519c2.126,0,3.837-1.745,3.794-3.87c-0.096-4.724-0.247-12.092-0.247-12.092"/>
			
				<path style="fill:none;stroke:#193326;stroke-width:0.8868;stroke-linecap:round;stroke-linejoin:round;stroke-miterlimit:10;" d="
				M867.356,292.491c2.455,5.367,8.015,9.174,13.907,9.52"/>
			
				<path style="fill:none;stroke:#193326;stroke-width:0.8868;stroke-linecap:round;stroke-linejoin:round;stroke-miterlimit:10;" d="
				M827.466,292.491c-2.455,5.367-8.015,9.174-13.907,9.52"/>
			<ellipse style="fill:#183A29;" cx="869.148" cy="395.347" rx="6.503" ry="13.006"/>
			<ellipse style="fill:#183A29;" cx="824.514" cy="395.347" rx="6.503" ry="13.006"/>
			<g>
				
					<path style="fill:none;stroke:#193326;stroke-width:0.8868;stroke-linecap:round;stroke-linejoin:round;stroke-miterlimit:10;" d="
					M816.977,288.197c0,0.148,0,0.296,0,0.443v3.596"/>
				
					<path style="fill:none;stroke:#193326;stroke-width:0.8868;stroke-linecap:round;stroke-linejoin:round;stroke-miterlimit:10;" d="
					M819.415,288.197c0,0.148,0,0.296,0,0.443v3.596"/>
			</g>
			<g>
				
					<path style="fill:none;stroke:#193326;stroke-width:0.8868;stroke-linecap:round;stroke-linejoin:round;stroke-miterlimit:10;" d="
					M827.174,288.197c0,0.148,0,0.296,0,0.443v3.596"/>
				
					<path style="fill:none;stroke:#193326;stroke-width:0.8868;stroke-linecap:round;stroke-linejoin:round;stroke-miterlimit:10;" d="
					M829.613,288.197c0,0.148,0,0.296,0,0.443v3.596"/>
			</g>
			<g>
				
					<path style="fill:none;stroke:#193326;stroke-width:0.8868;stroke-linecap:round;stroke-linejoin:round;stroke-miterlimit:10;" d="
					M839.146,288.197c0,0.148,0,0.296,0,0.443v3.596"/>
				
					<path style="fill:none;stroke:#193326;stroke-width:0.8868;stroke-linecap:round;stroke-linejoin:round;stroke-miterlimit:10;" d="
					M841.584,288.197c0,0.148,0,0.296,0,0.443v3.596"/>
			</g>
			<g>
				
					<path style="fill:none;stroke:#193326;stroke-width:0.8868;stroke-linecap:round;stroke-linejoin:round;stroke-miterlimit:10;" d="
					M855.107,288.197c0,0.148,0,0.296,0,0.443v3.596"/>
				
					<path style="fill:none;stroke:#193326;stroke-width:0.8868;stroke-linecap:round;stroke-linejoin:round;stroke-miterlimit:10;" d="
					M857.546,288.197c0,0.148,0,0.296,0,0.443v3.596"/>
			</g>
			<g>
				
					<path style="fill:none;stroke:#193326;stroke-width:0.8868;stroke-linecap:round;stroke-linejoin:round;stroke-miterlimit:10;" d="
					M865.305,288.197c0,0.148,0,0.296,0,0.443v3.596"/>
				
					<path style="fill:none;stroke:#193326;stroke-width:0.8868;stroke-linecap:round;stroke-linejoin:round;stroke-miterlimit:10;" d="
					M867.744,288.197c0,0.148,0,0.296,0,0.443v3.596"/>
			</g>
			<g>
				
					<path style="fill:none;stroke:#193326;stroke-width:0.8868;stroke-linecap:round;stroke-linejoin:round;stroke-miterlimit:10;" d="
					M877.276,288.197c0,0.148,0,0.296,0,0.443v3.596"/>
				
					<path style="fill:none;stroke:#193326;stroke-width:0.8868;stroke-linecap:round;stroke-linejoin:round;stroke-miterlimit:10;" d="
					M879.715,288.197c0,0.148,0,0.296,0,0.443v3.596"/>
			</g>
			
				<circle style="fill:none;stroke:#193326;stroke-width:0.8868;stroke-linecap:round;stroke-linejoin:round;stroke-miterlimit:10;" cx="847.976" cy="290.007" r="1.071"/>
			
				<line style="fill:none;stroke:#193326;stroke-width:0.8868;stroke-linecap:round;stroke-linejoin:round;stroke-miterlimit:10;" x1="843.781" y1="313.722" x2="849.617" y2="313.722"/>
		</g>
		<g>
			<path style="fill:#271B13;" d="M855.474,479.886c-0.827-28.184-3.276-56.314-4.103-84.498
				c10.986,1.302,19.743,1.868,30.782,1.141c-0.865,13.286-3.877,52.441-4.428,70.513c-0.149,4.902,2.273,9.524,6.405,12.166
				c3.422,2.188,7.045,4.395,8.332,6.293c2.662,3.925,2.105,10.346,2.105,10.346C888.544,498.357,870.578,492.092,855.474,479.886z"
				/>
			<path style="fill:#271B13;" d="M836.716,479.886c0.827-28.184,3.276-56.314,4.103-84.498
				c-10.986,1.302-19.743,1.868-30.782,1.141c0.865,13.286,3.877,52.441,4.428,70.513c0.15,4.902-2.273,9.524-6.405,12.166
				c-3.422,2.188-7.045,4.395-8.332,6.293c-2.662,3.925-2.106,10.346-2.106,10.346C803.647,498.357,821.613,492.092,836.716,479.886
				z"/>
		</g>
		<path style="fill:none;stroke:#E58800;stroke-width:0.81;stroke-linecap:round;stroke-linejoin:round;stroke-miterlimit:10;" d="
			M837.379,212.79c2.601,2.486,6.436,3.613,9.969,2.93"/>
	</g>
	<g>
		<defs>
			<rect id="SVGID_00000182522311429254663240000012321940925581971634_" width="940" height="500"/>
		</defs>
		<clipPath id="SVGID_00000110446269723214182990000001953720446422010762_">
			<use xlink:href="#SVGID_00000182522311429254663240000012321940925581971634_"  style="overflow:visible;"/>
		</clipPath>
		<g style="clip-path:url(#SVGID_00000110446269723214182990000001953720446422010762_);">
			<g>
				<g>
					<path style="fill:#D8C850;" d="M571.621,494.721c-0.674-9.884,4.595-28.356,9.581-37.356c1.054-1.902,2.111-3.809,3.418-5.6
						c3.928-5.38,9.921-9.473,15.798-13.456c1.774,11.786-1.797,24.782-9.682,34.709
						C584.783,480.512,576.432,486.686,571.621,494.721"/>
					<path style="fill:none;stroke:#937E02;stroke-linecap:round;stroke-linejoin:round;stroke-miterlimit:10;" d="M573.49,491.805
						c4.517-9.391,8.301-19.582,13.125-28.819c4.271-8.18,8.781-16.235,13.52-24.152"/>
				</g>
				<g>
					<path style="fill:#D8C850;" d="M569.949,473.053c-3.668-10.466-7.337-20.931-11.005-31.397
						c-1.139-3.25-2.282-6.513-2.946-9.893c-1.546-7.871-0.44-16.084-2.004-23.952c-1.766-8.89-6.799-16.733-11.733-24.337
						c2.108,6.693,3.077,14.664,4.502,21.534c0.594,2.863,1.13,5.8,0.725,8.696c-0.816,5.841-5.349,10.828-5.415,16.725
						c-0.048,4.221,2.214,8.08,4.403,11.689c7.874,12.98,15.749,25.961,23.623,38.941"/>
					<path style="fill:none;stroke:#937E02;stroke-linecap:round;stroke-linejoin:round;stroke-miterlimit:10;" d="M542.355,383.877
						c4.224,9.368,8.525,19.074,8.654,29.349c0.071,5.678-1.146,11.333-0.828,17.002c0.328,5.858,2.281,11.496,4.441,16.951
						c4.281,10.81,9.453,21.266,15.446,31.228"/>
				</g>
				<g>
					<path style="fill:#D8C850;" d="M572.92,491.602c4.104-4.579,8.314-9.244,13.689-12.232c1.011-0.562,2.206-1.072,3.291-0.672
						c5.592,2.059,11.916,2.304,16.74,5.804c1.783,1.294,3.519,2.909,4.051,5.047c0.26,1.046-0.158,1.472-0.505,2.492
						c-0.347,1.02-0.975,1.918-1.624,2.778c-0.872,1.157-1.795,2.275-2.717,3.393c-2.137,2.589-2.254,2.731-4.391,5.32
						c0,0-1.047-5.836-1.332-10.048c-0.154-2.266-0.512-4.623-1.837-6.468c-4.976-0.656-10.331-0.009-15.107,1.534
						c-1.221,0.394-2.435,0.866-3.474,1.62c-0.955,0.693-2.032,1.53-2.798,2.428c-1.55,1.819-3.289,3.584-4.205,5.792"/>
					<path style="fill:#364715;" d="M585.728,479.881c-3.904,2.364-9.365,7.009-12.973,11.733c0,0-0.195,6.032,0,7.441
						c0.236-0.449,2.242-3.627,2.532-4.043c2.492-3.579,5.991-6.11,10.231-7.133c4.806-1.16,9.058-1.115,12.768-0.863
						c-2.786-2.268-7.38-5.176-10.67-6.617C587.011,480.134,585.802,479.836,585.728,479.881z"/>
					<path style="fill:none;stroke:#937E02;stroke-linecap:round;stroke-linejoin:round;stroke-miterlimit:10;" d="M601.413,503.008
						c1.294-2.548,2.601-5.129,3.231-7.917c0.63-2.788,0.522-5.85-0.901-8.328c-1.795-3.127-5.303-4.805-8.67-6.094
						c-2.19-0.839-4.412-1.593-6.66-2.262"/>
				</g>
				<g>
					<path style="fill:#D8C850;" d="M571.237,503.476c-2.852-3.362-5.705-6.725-8.557-10.087c-2.166-2.553-4.406-5.167-7.366-6.732
						c-2.808-1.485-6.046-1.906-9.214-2.137c-1.628-0.119-3.352-0.174-4.793,0.593c-1.655,0.882-2.608,2.685-3.165,4.476
						c-0.841,2.704-0.998,5.618-0.451,8.396c-2.952-3.426-5.006-8.62-3.897-13.004c1.109-4.384,4.453-8.14,8.679-9.75
						c3.833-1.46,13.594-1.411,13.604-1.044c2.479,1.902,5.726,3.461,7.083,6.276c0.763,1.581,5.807,12.255,7.371,15.093
						C570.531,495.555,570.867,500.223,571.237,503.476z"/>
					<path style="fill:none;stroke:#937E02;stroke-linecap:round;stroke-linejoin:round;stroke-miterlimit:10;" d="M570.764,497.941
						c-2.378-3.622-4.978-7.098-7.781-10.402c-2.483-2.927-5.198-5.775-8.619-7.515c-3.421-1.74-7.693-2.211-11.056-0.363
						c-2.524,1.387-4.9,2.948-6.276,5.478c-1.724,3.171-1.277,9.801,0.66,12.846"/>
				</g>
				<path style="fill:none;stroke:#364715;stroke-width:3;stroke-miterlimit:10;" d="M570.912,435.349
					c0.725,40.854,0.859,83.055,0.328,118.251"/>
				<path style="fill:#364715;" d="M571.475,444.679c-0.142-2.293-1.435-4.325-2.54-6.339c-5.516-10.053-6.985-21.928-6.145-33.365
					c0.84-11.436,3.858-22.586,6.861-33.653c2.086,5.53,4.687,13.212,6.773,18.743c2.467,6.538,0.361,14.062,0.471,20.948
					C577.086,422.871,577.294,434.145,571.475,444.679z"/>
			</g>
			<g>
				<path style="fill:none;stroke:#364715;stroke-width:3;stroke-miterlimit:10;" d="M445.882,393.005
					c0.725,40.854,0.859,125.399,0.328,160.596"/>
				<path style="fill:#364715;" d="M445.271,395.298c-7.808-4.872-15.066-17.032-18.011-25.751
					c-2.029-6.007-4.335-11.92-6.91-17.714c-0.903-2.031-1.883-4.109-3.546-5.584c-1.808-1.603-4.21-2.31-6.452-3.209
					c-4.314-1.731-8.279-4.327-11.59-7.59c3.318,13.962,19.276,23.357,22.55,37.33c0.635,2.711,0.699,5.525,1.234,8.257
					c0.719,3.668,2.277,7.127,4.146,10.365c4.332,7.501,11.365,14.17,18.578,18.968"/>
				<path style="fill:#364715;" d="M445.28,510.74c-2.959-0.323-5.968-0.598-8.896-0.065c-2.928,0.533-5.811,1.977-7.462,4.453
					c-1.844,2.765-1.946,6.432-3.862,9.148c-2.199,3.118-6.234,4.276-9.213,6.661c-4.209,3.369-5.973,8.859-7.523,14.022
					c1.324-8.086,3.29-16.963,6.924-24.307c2.598-5.25,5.459-10.79,10.514-13.749C432.601,502.899,441.298,503.89,445.28,510.74z"/>
				<g>
					<path style="fill:#364715;" d="M446.533,501.305c4.465-4.301,10.514-10.095,15.749-13.417
						c3.155-2.002,7.839-4.652,11.285-3.208c1.01,2.846,2.775,7.682,3.784,10.528c-1.641-0.062-3.296-0.101-4.954-0.135
						c-4.342-0.091-8.527,1.606-11.568,4.707c-4.5,4.59-10.126,9.788-12.965,13.835L446.533,501.305z"/>
					<path style="fill:#D8C850;" d="M473.567,484.68c3.457,1.218,7.13,3.479,10.028,5.723c1.193,0.923,2.343,1.947,3.124,3.237
						c1.299,2.147,1.437,4.775,1.54,7.282c0.062,1.505,0.116,3.059-0.428,4.464c-0.454,1.171-1.289,2.146-2.038,3.154
						c-2.348,3.156-3.966,6.851-4.693,10.717c-3.007-5.126-3.572-11.537-2.785-17.427c0.143-1.069,0.328-2.149,0.198-3.22
						c-0.134-1.106-0.598-2.142-1.056-3.157C475.922,492.047,474.365,487.972,473.567,484.68z"/>
				</g>
				<path style="fill:#937E02;" d="M447.485,409.492c-4.031-13.19-9.12-24.919-13.15-38.109c-2.928-9.582-5.879-19.291-6.304-29.302
					c-0.393-9.27,1.393-18.473,2.47-27.689c1.565-13.386,1.636-26.896,1.705-40.373C449.352,317.46,453.903,363.234,447.485,409.492
					z"/>
				<g>
					<path style="fill:#D8C850;" d="M462.164,425.72c3.128-3.469,3.948-3.627,8.186-5.591c4.238-1.964,9.328-2.494,13.563-0.523
						c3.236,1.507,5.677,4.287,7.914,7.069c6.953,8.647,12.926,18.082,17.769,28.066
						C490.737,452.079,472.883,441.461,462.164,425.72"/>
					<path style="fill:none;stroke:#937E02;stroke-linecap:round;stroke-linejoin:round;stroke-miterlimit:10;" d="M462.44,426.122
						c7.836-4.04,15.058-1.01,20.531,3.206c5.473,4.217,9.719,9.781,14.395,14.868c3.506,3.815,7.42,7.467,11.956,9.872"/>
				</g>
				<g>
					<path style="fill:#364715;" d="M432.205,423.482c4.158,8.322,6.121,17.728,5.641,27.018c-0.177,3.433-0.681,6.848-0.715,10.285
						c-0.1,10.376,5.913,21.605,9.997,31.145v1.529c-12.9-10.888-17.572-28.808-18.178-45.678c-0.102-2.838-0.84-6.707-2.773-8.788
						c0.68-4.673,1.842-9.328,4.438-13.273C431.126,424.942,431.427,424.27,432.205,423.482z"/>
					<path style="fill:#D8C850;" d="M428.641,473.271c-3.44-16.334-4.263-34.566,3.564-49.789
						c-5.34-1.364-11.715-1.927-18.247-0.967c1.919,12.387,2.022,24.65,7.28,36.029C423.75,463.978,426.329,469.681,428.641,473.271
						z"/>
					<path style="fill:none;stroke:#937E02;stroke-linecap:round;stroke-linejoin:round;stroke-miterlimit:10;" d="M423.081,422.035
						c-2.765,17.065-1.168,36.546,5.345,52.56"/>
				</g>
				<g>
					<path style="fill:#EF920F;" d="M469.281,414.555c2.699-6.875,3.283-8.229,3.419-14.863c0.035-1.719,0.026-3.488-0.609-5.086
						c-0.635-1.598-2.771-3.736-4.486-3.871c-1.597-0.126-3.111,0.871-4.066,2.158c-0.955,1.287-7.361,12.924-8.463,17.525
						c0.287,1.209,0.282,2.261,0.569,3.47c0.248,1.045,0.497,2.093,0.861,3.104c0.341,0.946,0.782,1.853,1.243,2.747
						c1.207,2.339,2.239,4.499,4.413,5.982C463.526,425.11,468.884,415.567,469.281,414.555z"/>
					<g>
						
							<line style="fill:none;stroke:#D37300;stroke-linecap:round;stroke-miterlimit:10;" x1="458.066" y1="411.638" x2="468.115" y2="391.458"/>
						
							<line style="fill:none;stroke:#D37300;stroke-linecap:round;stroke-miterlimit:10;" x1="459.481" y1="419.055" x2="471.341" y2="394.684"/>
						<path style="fill:none;stroke:#D37300;stroke-linecap:round;stroke-miterlimit:10;" d="M463.011,394.798
							c3.087,2.162,6.058,4.49,8.897,6.97"/>
						<path style="fill:none;stroke:#D37300;stroke-linecap:round;stroke-miterlimit:10;" d="M460.106,399.895
							c2.588,1.602,5.071,3.373,7.43,5.296c1.301,1.061,2.564,2.167,3.826,3.273"/>
						<path style="fill:none;stroke:#D37300;stroke-linecap:round;stroke-miterlimit:10;" d="M458.217,404.92
							c0.778,0.645,1.557,1.289,2.335,1.934c2.9,2.402,5.803,4.806,8.523,7.409"/>
						<path style="fill:none;stroke:#D37300;stroke-linecap:round;stroke-miterlimit:10;" d="M457.729,411.45
							c3.134,2.696,5.501,4.733,8.635,7.429"/>
					</g>
				</g>
				<path style="fill:#364715;" d="M462.164,425.72c-4.35-6.892-5.968-15.457-4.432-23.461c0.677-3.531,1.935-6.921,2.855-10.397
					c1.206-4.557,1.831-9.268,1.854-13.983c-2.203,8.587-5.321,16.84-8.283,25.196c-1.474,4.158-3.135,8.257-4.31,12.51
					c-3.077,11.142-4.577,26.639-2.72,36.47"/>
			</g>
			<g>
				<path style="fill:#364715;" d="M667.103,362.376c-4.614-6.821-3.778-16.498-3.768-24.937c0.007-6.094,0.679-12.164,1.35-18.221
					c2.496-22.528,4.992-45.056,7.488-67.584c6.4,10.569,13.661,21.709,14.195,34.053c0.491,11.366-4.224,22.227-6.505,33.373
					C676.712,334.453,677.267,350.394,667.103,362.376z"/>
				<path style="fill:#937E02;" d="M664.76,357.416c-8.18-6.364-12.013-15.453-14.527-25.507
					c-1.587-6.344-2.978-12.736-4.173-19.165c-1.904-10.247-3.306-20.58-4.707-30.908c-1.042-7.686-2.085-15.371-3.127-23.057
					c9.334,13.645,18.91,26.615,21.305,42.973c0.814,5.558,0.765,11.202,1.134,16.807
					C661.578,332.419,661.313,343.962,664.76,357.416z"/>
				<g>
					<path style="fill:#EF920F;" d="M665.995,400.206c-0.088-7.359-0.502-16.147,0.281-24.09c0.032-0.321-0.153-0.574-0.342-0.313
						c-3.007-8.45-7.741-16.28-13.826-22.869c-0.478-0.517-0.977-1.037-1.604-1.357c-0.439-0.224-1.095-0.234-1.79-0.135
						c-1.717,0.243-3.092,1.524-3.624,3.175c-1.154,3.584-1.299,7.489-0.8,11.241c0.614,4.617,2.151,9.057,3.79,13.416
						c1.742,4.631,6.39,7.13,9.829,10.686C660.838,392.989,664.052,396.784,665.995,400.206
						C666.237,400.634,665.995,400.206,665.995,400.206z"/>
					<path style="fill:none;stroke:#D37300;stroke-linecap:round;stroke-miterlimit:10;" d="M644.483,361.038
						c3.587-0.73,10.373-3.88,10.373-3.88"/>
					<path style="fill:none;stroke:#D37300;stroke-linecap:round;stroke-miterlimit:10;" d="M644.931,367.749
						c0,0,1.874-0.671,2.994-1.154c3.519-1.517,7.037-3.034,10.556-4.551"/>
					
						<line style="fill:none;stroke:#D37300;stroke-linecap:round;stroke-miterlimit:10;" x1="646.628" y1="374.348" x2="661.872" y2="367.316"/>
					<path style="fill:none;stroke:#D37300;stroke-linecap:round;stroke-miterlimit:10;" d="M648.628,380.097
						c5.127-1.665,11.249-4.129,16.1-6.48"/>
					<path style="fill:none;stroke:#D37300;stroke-linecap:round;stroke-miterlimit:10;" d="M653.046,384.839
						c3.477-1.541,11.336-4.454,11.336-4.454"/>
					
						<line style="fill:none;stroke:#D37300;stroke-linecap:round;stroke-miterlimit:10;" x1="658.304" y1="388.947" x2="665.115" y2="386.138"/>
					
						<line style="fill:none;stroke:#D37300;stroke-linecap:round;stroke-miterlimit:10;" x1="649.67" y1="353.305" x2="664.729" y2="390.555"/>
					
						<line style="fill:none;stroke:#D37300;stroke-linecap:round;stroke-miterlimit:10;" x1="645.277" y1="356.555" x2="659.022" y2="390.555"/>
				</g>
				<g>
					<path style="fill:#EF920F;" d="M667.7,408.431c1.003-13.969,12.171-28.807,16.123-33.656c0.8-0.982,2.139-1.333,3.317-0.867
						l2.32,0.917c1.353,0.535,2.101,1.984,1.749,3.395c-1.235,4.952-4.072,15.978-5.797,19.992c-3.418,0.218-6.597,1.099-9.75,2.437
						c-1.396,0.593-2.809,1.342-3.652,2.603c-0.447,0.668-0.705,1.44-0.959,2.203c-0.377,1.13-0.753,2.26-1.13,3.391
						c-0.072,0.216-0.159,0.451-0.356,0.565c-0.135,0.078-0.3,0.085-0.456,0.074C668.424,409.436,668.089,408.998,667.7,408.431z"/>
					
						<line style="fill:none;stroke:#D37300;stroke-linecap:round;stroke-miterlimit:10;" x1="686.123" y1="374.722" x2="672.873" y2="398.222"/>
					
						<line style="fill:none;stroke:#D37300;stroke-width:1.027;stroke-linecap:round;stroke-miterlimit:10;" x1="689.65" y1="375.889" x2="680.031" y2="396.305"/>
					<path style="fill:none;stroke:#D37300;stroke-width:1.027;stroke-linecap:round;stroke-miterlimit:10;" d="M682.871,377.04
						c2.921,1.157,4.496,1.781,7.417,2.938"/>
					<path style="fill:none;stroke:#D37300;stroke-width:1.027;stroke-linecap:round;stroke-miterlimit:10;" d="M680.031,380.719
						c2.92,1.157,5.792,2.295,8.712,3.452"/>
					<path style="fill:none;stroke:#D37300;stroke-width:1.027;stroke-linecap:round;stroke-miterlimit:10;" d="M677.224,384.677
						c3.432,1.42,10.641,4.253,10.641,4.253"/>
					<path style="fill:none;stroke:#D37300;stroke-width:1.027;stroke-linecap:round;stroke-miterlimit:10;" d="M675.075,388.264
						c3.432,1.42,11.504,4.74,11.504,4.74"/>
					<path style="fill:none;stroke:#D37300;stroke-width:1.027;stroke-linecap:round;stroke-miterlimit:10;" d="M673.336,392.422
						c3.432,1.42,11.966,4.446,11.966,4.446"/>
				</g>
				<g>
					<path style="fill:#364715;" d="M669.74,447.268c2.601-10.664,6.595-21.869,11.324-31.774l-9.336-15.605
						c-1.625,4.524-2.484,8.921-3.118,13.686"/>
					<g>
						<path style="fill:#D8C850;" d="M673.081,399.884c3.482-0.74,7.411-2.712,10.961-2.441c3.55,0.271,7.146,1.565,9.547,4.194
							c5,5.473,3.203,14.084,4.917,21.296c0.827,3.478,2.535,6.794,2.598,10.368c0.081,4.591-2.543,8.739-5.071,12.573
							c0.494-6.687-4.267-13.663-8.04-19.206c-4.725-6.942-9.105-14.119-13.119-21.496c-0.823-1.513-2.131-3.787-3.146-5.179"/>
						<path style="fill:none;stroke:#937E02;stroke-linecap:round;stroke-linejoin:round;stroke-miterlimit:10;" d="M680.846,398.55
							c2.989,3.357,5.462,7.173,7.307,11.271c1.461,3.244,2.524,6.65,3.584,10.047c1.254,4.019,2.509,8.038,3.763,12.058
							c1.298,4.159,1.479,9.695,0.532,13.948"/>
					</g>
				</g>
				<g>
					<path style="fill:#364715;" d="M633.86,381.993c2.492,0.803,4.818,2.117,6.792,3.836c2.536,2.209,4.452,5.033,6.802,7.438
						c3.106,3.179,6.978,5.605,11.194,7.012c2.215,0.74,6.015-0.186,7.967,1.095c-5.227-10.291-16.124-19.654-26.006-25.619
						L633.86,381.993z"/>
					<g>
						<path style="fill:#D8C850;" d="M640.609,375.756c-2.113,2.202-4.338,4.297-6.663,6.274c-1.348,1.146-2.732,2.255-3.974,3.513
							c-2.46,2.492-4.309,5.509-6.135,8.497c-3.197,5.23-6.432,10.547-8.067,16.455c-0.84-5.511-2.233-11.343-2.01-16.913
							c0.349-8.742,8.661-13.944,15.008-19.964C632.793,373.617,636.652,375.02,640.609,375.756z"/>
						<path style="fill:none;stroke:#937E02;stroke-linecap:round;stroke-linejoin:round;stroke-miterlimit:10;" d="
							M615.802,411.222c-0.227,2.458,0.608-6.737,1.205-11.458c0.374-2.96,0.791-5.933,1.68-8.781
							c1.061-3.398,2.822-6.575,5.14-9.276c2.653-3.092,5.981-5.518,9.276-7.914"/>
					</g>
				</g>
				<g>
					<path style="fill:#D8C850;" d="M654.017,419.68c-3.1,0.706-5.298,6.518-7.843,8.777c-1.518,1.347-3.19,2.512-4.727,3.838
						c-3.938,3.397-6.95,7.858-8.628,12.781c-1.05-0.959-3.226-4.433-3.763-6.94c-0.454-2.118-0.632-4.325-0.207-6.449
						c0.331-1.652,1.017-3.214,1.833-4.688c1.777-3.212,4.195-6.067,7.069-8.35C643.085,418.822,648.684,419.507,654.017,419.68z"/>
					<path style="fill:#364715;" d="M654.017,419.68c1.729,1.417,2.986,3.872,4.056,5.834c0.908,1.665,1.538,3.466,2.105,5.276
						c2.216,7.077,3.711,14.78,8.743,20.228c-4.234-2.745-7.567-5.049-10.849-8.881c-2.06-2.406-3.797-5.209-6.429-6.971
						c-4.935-3.304-8.06-3.304-10.331-2.816c3.137-2.035,6.458-5.858,9.02-9.827C651.55,420.638,652.614,420.055,654.017,419.68z"/>
					<path style="fill:none;stroke:#937E02;stroke-linecap:round;stroke-linejoin:round;stroke-miterlimit:10;" d="M632.827,444.989
						c-1.245-5.545,0.123-11.619,3.626-16.093c1.114-1.423,2.421-2.68,3.643-4.011c1.703-1.854,3.245-3.856,4.604-5.976"/>
				</g>
				<g>
					<path style="fill:#364715;" d="M683.044,458.786c-4.493,3.131-7.208,7.666-9.583,12.6c-2.375,4.935-3.862,10.242-5.257,15.538
						c-0.75,2.844,1.218,6.383,1.181,9.323c2.331-4.745,5.009-9.826,7.594-14.437c3.32-5.925,14.47-17.829,19.512-22.38
						l-7.396,0.563L683.044,458.786z"/>
					<g>
						<path style="fill:#D8C850;" d="M683.044,458.786c3.883,4.243,6.611,9.396,10.04,14.014
							c3.429,4.618,11.548,12.146,15.698,14.089c0.274-8.673-5.743-23.044-12.171-28.873
							C691.843,458.617,687.797,459.488,683.044,458.786z"/>
						<path style="fill:none;stroke:#937E02;stroke-linecap:round;stroke-linejoin:round;stroke-miterlimit:10;" d="
							M690.583,458.809c7.165,9.298,15.07,16.766,18.198,28.079"/>
					</g>
				</g>
				<path style="fill:none;stroke:#364715;stroke-width:3;stroke-miterlimit:10;" d="M665.995,356.555
					c2.511,59.066,3.495,137.933,2.603,197.046"/>
			</g>
		</g>
	</g>
	<g>
		<defs>
			<rect id="SVGID_00000075871011077371773200000004664951689887185042_" width="940" height="500"/>
		</defs>
		<clipPath id="SVGID_00000016796280356413357830000004418115156715877311_">
			<use xlink:href="#SVGID_00000075871011077371773200000004664951689887185042_"  style="overflow:visible;"/>
		</clipPath>
		<g style="clip-path:url(#SVGID_00000016796280356413357830000004418115156715877311_);">
			<g>
				<g>
					<path style="fill:#183A29;" d="M791.943,513.801c38.408-80.043,118.179-121.208,189.439-89.738
						c31.338,13.839,65.989,47.761,72.233,91.072L791.943,513.801z"/>
					<path style="fill:#183A29;" d="M709.252,512.202c26.51-55.247,81.57-83.66,130.755-61.939
						c21.63,9.552,45.547,32.966,49.857,62.86L709.252,512.202z"/>
				</g>
				<g>
					
						<line style="fill:none;stroke:#28523E;stroke-linecap:round;stroke-linejoin:round;stroke-miterlimit:10;" x1="757.167" y1="458.996" x2="782.673" y2="512.576"/>
					
						<line style="fill:none;stroke:#28523E;stroke-linecap:round;stroke-linejoin:round;stroke-miterlimit:10;" x1="772.499" y1="450.47" x2="786.527" y2="512.638"/>
					<path style="fill:none;stroke:#28523E;stroke-linecap:round;stroke-linejoin:round;stroke-miterlimit:10;" d="M806.545,444.762
						c0,3.718,4.371,69.274,4.371,69.274"/>
					<path style="fill:none;stroke:#28523E;stroke-linecap:round;stroke-linejoin:round;stroke-miterlimit:10;" d="M725.518,487.944
						c-0.409,0.057,0.209-0.485,0.544-0.244c10.158,7.289,25.336,17.479,35.494,24.769"/>
					<path style="fill:none;stroke:#28523E;stroke-linecap:round;stroke-linejoin:round;stroke-miterlimit:10;" d="M839.937,450.117
						c14.74,21.95,29.481,43.901,44.221,65.851"/>
					<path style="fill:none;stroke:#28523E;stroke-linecap:round;stroke-linejoin:round;stroke-miterlimit:10;" d="M876.687,428.009
						c2.418,27.529,7.059,60.818,12.262,87.959"/>
					<path style="fill:none;stroke:#28523E;stroke-linecap:round;stroke-linejoin:round;stroke-miterlimit:10;" d="M833.938,449.021
						c-3.105,26.655-6.211,53.309-9.316,79.963"/>
					<path style="fill:none;stroke:#28523E;stroke-linecap:round;stroke-linejoin:round;stroke-miterlimit:10;" d="M909.163,415.148
						c9.812,34.276,19.623,68.552,29.434,102.829"/>
					
						<line style="fill:none;stroke:#28523E;stroke-linecap:round;stroke-linejoin:round;stroke-miterlimit:10;" x1="944.904" y1="415.349" x2="941.166" y2="524.029"/>
					
						<line style="fill:none;stroke:#28523E;stroke-linecap:round;stroke-linejoin:round;stroke-miterlimit:10;" x1="899.853" y1="417.629" x2="929.058" y2="515.135"/>
					
						<line style="fill:none;stroke:#28523E;stroke-linecap:round;stroke-linejoin:round;stroke-miterlimit:10;" x1="961.058" y1="512.469" x2="998.178" y2="437.29"/>
					<path style="fill:none;stroke:#28523E;stroke-linecap:round;stroke-linejoin:round;stroke-miterlimit:10;" d="M974.058,513.035
						c1-3,38.676-65.74,38.676-65.74"/>
					<path style="fill:none;stroke:#28523E;stroke-linecap:round;stroke-linejoin:round;stroke-miterlimit:10;" d="M857.73,437.528
						c0.318,3.734,0.636,7.469,0.953,11.204c0.537,6.315,1.075,12.63,1.612,18.945c0.368,4.322,0.736,8.643,1.155,12.96"/>
					<path style="fill:none;stroke:#28523E;stroke-linecap:round;stroke-linejoin:round;stroke-miterlimit:10;" d="M928.757,414.092
						c3.359,17.97,13.728,59.449,14.162,58.964"/>
					<path style="fill:none;stroke:#28523E;stroke-linecap:round;stroke-linejoin:round;stroke-miterlimit:10;" d="M791.885,445.613
						c5.031,11.147,10.331,22.173,15.896,33.064"/>
				</g>
			</g>
			<g>
				<g>
					<path style="fill:#183A29;" d="M-81.857,539.286c46.614-93.513,143.429-141.605,229.915-104.839
						c38.034,16.168,80.088,55.798,87.666,106.397L-81.857,539.286z"/>
					<g>
						<path style="fill:none;stroke:#28523E;stroke-linecap:round;stroke-linejoin:round;stroke-miterlimit:10;" d="
							M-47.419,489.367c12.296,17.693,24.592,35.385,36.888,53.078"/>
						
							<line style="fill:none;stroke:#28523E;stroke-linecap:round;stroke-linejoin:round;stroke-miterlimit:10;" x1="-28.705" y1="473.887" x2="9.353" y2="542.445"/>
						<path style="fill:none;stroke:#28523E;stroke-linecap:round;stroke-linejoin:round;stroke-miterlimit:10;" d="M16.792,439.437
							c1.226,4.755,26.557,103.008,26.557,103.008"/>
						<path style="fill:none;stroke:#28523E;stroke-linecap:round;stroke-linejoin:round;stroke-miterlimit:10;" d="M53.056,426.924
							c1.727,39.537,1.934,77.557,0.637,117.111"/>
						<path style="fill:none;stroke:#28523E;stroke-linecap:round;stroke-linejoin:round;stroke-miterlimit:10;" d="M35.057,432.249
							c5.485,15.212,11.922,30.081,19.261,44.491"/>
						
							<line style="fill:none;stroke:#28523E;stroke-linecap:round;stroke-linejoin:round;stroke-miterlimit:10;" x1="-64.998" y1="510.809" x2="-22.84" y2="524.849"/>
						
							<line style="fill:none;stroke:#28523E;stroke-linecap:round;stroke-linejoin:round;stroke-miterlimit:10;" x1="78.033" y1="423.22" x2="70.893" y2="540.035"/>
						<path style="fill:none;stroke:#28523E;stroke-linecap:round;stroke-linejoin:round;stroke-miterlimit:10;" d="
							M106.636,425.419c-7.772,37.787-14.346,75.821-19.708,114.025"/>
						
							<line style="fill:none;stroke:#28523E;stroke-linecap:round;stroke-linejoin:round;stroke-miterlimit:10;" x1="97.346" y1="473.887" x2="140.432" y2="432.078"/>
						<path style="fill:none;stroke:#28523E;stroke-linecap:round;stroke-linejoin:round;stroke-miterlimit:10;" d="M158.045,441.04
							c-8.141,21.895-16.283,43.789-24.424,65.684c-4.915,13.218-8.048,19.896-11.53,33.562"/>
						<path style="fill:none;stroke:#28523E;stroke-linecap:round;stroke-linejoin:round;stroke-miterlimit:10;" d="
							M146.691,542.445c-1.857,3.63,29.663-57.995,41.551-81.238"/>
						
							<line style="fill:none;stroke:#28523E;stroke-linecap:round;stroke-linejoin:round;stroke-miterlimit:10;" x1="148.557" y1="544.034" x2="202.348" y2="473.887"/>
						
							<line style="fill:none;stroke:#28523E;stroke-linecap:round;stroke-linejoin:round;stroke-miterlimit:10;" x1="188.844" y1="540.779" x2="219.424" y2="497.956"/>
					</g>
				</g>
				<g>
					<path style="fill:#183A29;" d="M216.857,524.191c26.51-55.247,81.57-83.661,130.755-61.939
						c21.63,9.552,45.547,32.966,49.857,62.86L216.857,524.191z"/>
					
						<line style="fill:none;stroke:#28523E;stroke-linecap:round;stroke-linejoin:round;stroke-miterlimit:10;" x1="302.883" y1="456.025" x2="307.163" y2="523.734"/>
					<path style="fill:none;stroke:#28523E;stroke-linecap:round;stroke-linejoin:round;stroke-miterlimit:10;" d="M289.309,458.945
						c7.393,20.577,14.625,46.314,19.031,67.73"/>
					<path style="fill:none;stroke:#28523E;stroke-linecap:round;stroke-linejoin:round;stroke-miterlimit:10;" d="M255.637,477.982
						c12.286,18.199,24.571,36.398,36.857,54.596"/>
					<path style="fill:none;stroke:#28523E;stroke-linecap:round;stroke-linejoin:round;stroke-miterlimit:10;" d="M268.013,467.85
						c8.112,24.937,16.312,50.077,29.345,72.832"/>
					
						<line style="fill:none;stroke:#28523E;stroke-linecap:round;stroke-linejoin:round;stroke-miterlimit:10;" x1="243.085" y1="487.386" x2="279.669" y2="528.406"/>
					<path style="fill:none;stroke:#28523E;stroke-linecap:round;stroke-linejoin:round;stroke-miterlimit:10;" d="M326.014,456.074
						c-2.107,24.726-4.997,49.386-8.664,73.93"/>
					
						<line style="fill:none;stroke:#28523E;stroke-linecap:round;stroke-linejoin:round;stroke-miterlimit:10;" x1="344.124" y1="460.802" x2="321.041" y2="551.483"/>
					<path style="fill:none;stroke:#28523E;stroke-linecap:round;stroke-linejoin:round;stroke-miterlimit:10;" d="M332.121,526.111
						c20.215-16.698,25.753-21.611,44.744-39.689"/>
					<path style="fill:none;stroke:#28523E;stroke-linecap:round;stroke-linejoin:round;stroke-miterlimit:10;" d="M343.697,526.738
						c18.455-12.643,23.319-15.838,42.249-27.758"/>
				</g>
			</g>
		</g>
	</g>
	<g>
		<path style="fill:#FFF6EB;" d="M887.677,89.604c-0.821-7.465-2.076-15.242-6.567-21.261c-4.491-6.019-13.202-9.539-19.771-5.899
			c-6.736,3.732-9.866,13.77-17.558,14.133c-10.942,0.517-12.535-18.143-22.957-21.517c-8.028-2.599-15.301,5.34-19.874,12.431
			c-4.573,7.092-11.195,15.323-19.445,13.546c-10.545-2.271-11.09-17.615-18.968-24.983c-7.962-7.447-21.758-4.267-29.167,3.731
			c-7.408,7.998-10.08,19.164-12.479,29.798L887.677,89.604z"/>
		<path style="fill:#FFF6EB;" d="M118.891,77.604c0.821-7.465,2.076-15.242,6.567-21.261c4.491-6.019,13.202-9.539,19.771-5.899
			c6.736,3.733,9.866,13.77,17.558,14.133c10.942,0.517,12.535-18.143,22.957-21.517c8.028-2.599,15.301,5.34,19.874,12.431
			c4.573,7.092,11.195,15.323,19.445,13.546c10.545-2.271,11.09-17.615,18.968-24.983c7.962-7.447,21.758-4.267,29.167,3.731
			s10.079,19.164,12.479,29.798L118.891,77.604z"/>
		<path style="fill:#FFF6EB;" d="M487.737,129.332c0.726-7.465,1.836-15.242,5.807-21.261s11.675-9.539,17.483-5.899
			c5.957,3.733,8.724,13.77,15.527,14.133c9.676,0.517,11.085-18.143,20.301-21.517c7.099-2.599,13.531,5.34,17.575,12.431
			c4.044,7.092,9.9,15.323,17.195,13.546c9.325-2.271,9.807-17.615,16.774-24.983c7.041-7.447,19.241-4.267,25.792,3.731
			c6.551,7.998,8.913,19.164,11.035,29.798L487.737,129.332z"/>
		<path style="fill:#FFF6EB;" d="M601.123,214.438c1.085-6.044,1.025-12.13,5.34-16.101c4.315-3.972,11.084-5.195,15.644-1.562
			c4.183,3.333,6.107,10.094,11.145,11.405c4.412,1.148,8.636-2.752,10.939-7.015s3.639-12.299,6.797-15.851
			c3.322-3.738,8.516-5.359,13.148-4.104c4.631,1.255,8.526,5.339,9.859,10.338c1.233,4.623,2.243,13.433,6.229,15.5
			c4.787,2.482,6.969-6.414,11.574-9.278c4.309-2.681,10.086-2.222,13.993,1.112s5.447,11,5.325,17.553"/>
		<path style="fill:#FFF6EB;" d="M342.366,203.391c1.194-6.649,1.127-13.344,5.874-17.713c4.747-4.369,12.193-5.715,17.209-1.719
			c4.602,3.666,6.718,11.104,12.26,12.547c4.854,1.263,9.5-3.027,12.033-7.717c2.533-4.69,4.004-13.529,7.477-17.437
			c3.655-4.112,9.368-5.895,14.463-4.514c5.095,1.381,9.38,5.873,10.846,11.373c1.356,5.086,2.467,14.778,6.853,17.051
			c5.266,2.731,7.667-7.055,12.732-10.207c4.74-2.949,11.095-2.444,15.393,1.223s5.992,12.101,5.858,19.31"/>
	</g>
	<g>
		
			<line style="fill:none;stroke:#364715;stroke-linecap:round;stroke-linejoin:round;stroke-miterlimit:10;" x1="758.948" y1="374.222" x2="759.195" y2="378.531"/>
		
			<line style="fill:none;stroke:#364715;stroke-linecap:round;stroke-linejoin:round;stroke-miterlimit:10;" x1="761.624" y1="378.304" x2="762.115" y2="375.68"/>
		<path style="fill:none;stroke:#364715;stroke-linecap:round;stroke-linejoin:round;stroke-miterlimit:10;" d="M755.38,375.799
			c0.394,1.091,0.789,2.183,1.183,3.274"/>
		<g>
			<path style="fill:none;stroke:#364715;stroke-linecap:round;stroke-linejoin:round;stroke-miterlimit:10;" d="M792.349,411.055
				c0.007,0.921,0.113,1.841,0.315,2.739"/>
			<path style="fill:none;stroke:#364715;stroke-linecap:round;stroke-linejoin:round;stroke-miterlimit:10;" d="M795.115,410.555
				c0,1.25,0,2.5,0,3.75"/>
		</g>
		<g>
			<path style="fill:none;stroke:#364715;stroke-linecap:round;stroke-linejoin:round;stroke-miterlimit:10;" d="M721.865,402.555
				c0,1.333,0,2.667,0,4"/>
			<path style="fill:none;stroke:#364715;stroke-linecap:round;stroke-linejoin:round;stroke-miterlimit:10;" d="M725.84,403.549
				c-0.24,1.002-0.479,2.005-0.719,3.007"/>
			<path style="fill:none;stroke:#364715;stroke-linecap:round;stroke-linejoin:round;stroke-miterlimit:10;" d="M718.333,404.564
				c0.242,0.836,0.484,1.671,0.725,2.507"/>
		</g>
		<g>
			<path style="fill:none;stroke:#364715;stroke-linecap:round;stroke-linejoin:round;stroke-miterlimit:10;" d="M728.115,443.305
				c0,1.417,0,2.833,0,4.25"/>
			<path style="fill:none;stroke:#364715;stroke-linecap:round;stroke-linejoin:round;stroke-miterlimit:10;" d="M730.818,447.794
				c0.256-1.082,0.512-2.164,0.768-3.246"/>
			<path style="fill:none;stroke:#364715;stroke-linecap:round;stroke-linejoin:round;stroke-miterlimit:10;" d="M724.312,444.316
				c0.236,1.086,0.471,2.173,0.707,3.259"/>
		</g>
		<g>
			<path style="fill:none;stroke:#364715;stroke-linecap:round;stroke-linejoin:round;stroke-miterlimit:10;" d="M908.472,373.373
				c0.664,1.008,1.113,2.158,1.307,3.349"/>
			<path style="fill:none;stroke:#364715;stroke-linecap:round;stroke-linejoin:round;stroke-miterlimit:10;" d="M912.022,370.728
				c0.136,2.109,0.273,4.219,0.409,6.328"/>
			<path style="fill:none;stroke:#364715;stroke-linecap:round;stroke-linejoin:round;stroke-miterlimit:10;" d="M914.781,374.055
				c0,0.889,0,1.778,0,2.667"/>
		</g>
		<g>
			<path style="fill:none;stroke:#364715;stroke-linecap:round;stroke-linejoin:round;stroke-miterlimit:10;" d="M924.057,388.729
				c0.142,1.107,0.284,2.214,0.426,3.322"/>
			<path style="fill:none;stroke:#364715;stroke-linecap:round;stroke-linejoin:round;stroke-miterlimit:10;" d="M926.721,385.726
				c0.142,1.887,0.284,3.773,0.426,5.66"/>
		</g>
		<g>
			<path style="fill:none;stroke:#364715;stroke-linecap:round;stroke-linejoin:round;stroke-miterlimit:10;" d="M896.47,405.051
				c0.214,1.113,0.428,2.225,0.642,3.338"/>
			<path style="fill:none;stroke:#364715;stroke-linecap:round;stroke-linejoin:round;stroke-miterlimit:10;" d="M899.696,401.726
				c0.121,2.333,0.241,4.666,0.362,6.999"/>
			<path style="fill:none;stroke:#364715;stroke-linecap:round;stroke-linejoin:round;stroke-miterlimit:10;" d="M903.115,405.055
				c0,1.111,0,2.222,0,3.333"/>
		</g>
		<g>
			<path style="fill:none;stroke:#364715;stroke-linecap:round;stroke-linejoin:round;stroke-miterlimit:10;" d="M757.115,422.055
				c0-1,0-2,0-3"/>
			<path style="fill:none;stroke:#364715;stroke-linecap:round;stroke-linejoin:round;stroke-miterlimit:10;" d="M760.11,417.055
				c-0.068,1.339,0.063,2.687,0.39,3.987"/>
		</g>
		<g>
			<path style="fill:none;stroke:#364715;stroke-linecap:round;stroke-linejoin:round;stroke-miterlimit:10;" d="M628.781,474.055
				c0,1.333,0,2.667,0,4"/>
			<path style="fill:none;stroke:#364715;stroke-linecap:round;stroke-linejoin:round;stroke-miterlimit:10;" d="M631.781,472.388
				c0,1.889,0,3.778,0,5.667"/>
		</g>
		<g>
			<path style="fill:none;stroke:#364715;stroke-linecap:round;stroke-linejoin:round;stroke-miterlimit:10;" d="M649.134,492.38
				c0.355,0.88,0.71,1.76,1.065,2.641"/>
			<path style="fill:none;stroke:#364715;stroke-linecap:round;stroke-linejoin:round;stroke-miterlimit:10;" d="M652.781,494.722
				c0-1.889,0-3.778,0-5.667"/>
			<path style="fill:none;stroke:#364715;stroke-linecap:round;stroke-linejoin:round;stroke-miterlimit:10;" d="M655.395,495.382
				c0.144-1.218,0.289-2.436,0.433-3.655"/>
		</g>
		<g>
			<path style="fill:none;stroke:#364715;stroke-linecap:round;stroke-linejoin:round;stroke-miterlimit:10;" d="M592.782,422.055
				c-0.077,1.147,0.135,2.312,0.61,3.359"/>
			<path style="fill:none;stroke:#364715;stroke-linecap:round;stroke-linejoin:round;stroke-miterlimit:10;" d="M597.024,419.728
				c0.135,1.887,0.27,3.774,0.405,5.661"/>
			<path style="fill:none;stroke:#364715;stroke-linecap:round;stroke-linejoin:round;stroke-miterlimit:10;" d="M600.458,425.054
				c-0.132-1.228-0.026-2.481,0.312-3.669"/>
		</g>
		<g>
			<path style="fill:none;stroke:#364715;stroke-linecap:round;stroke-linejoin:round;stroke-miterlimit:10;" d="M636.789,401.053
				c0.344,1.186,0.452,2.44,0.315,3.668"/>
			<path style="fill:none;stroke:#364715;stroke-linecap:round;stroke-linejoin:round;stroke-miterlimit:10;" d="M639.532,399.711
				c0.219,1.667,0.439,3.334,0.658,5.001"/>
		</g>
		<path style="fill:none;stroke:#364715;stroke-linecap:round;stroke-linejoin:round;stroke-miterlimit:10;" d="M716.163,372.378
			c0.292,1.342,0.585,2.685,0.877,4.027"/>
		<path style="fill:none;stroke:#364715;stroke-linecap:round;stroke-linejoin:round;stroke-miterlimit:10;" d="M719.813,369.724
			c-0.153,2.004-0.106,4.023,0.138,6.018"/>
		<g>
			
				<line style="fill:none;stroke:#364715;stroke-linecap:round;stroke-linejoin:round;stroke-miterlimit:10;" x1="514.448" y1="414.055" x2="514.448" y2="410.041"/>
			
				<line style="fill:none;stroke:#364715;stroke-linecap:round;stroke-linejoin:round;stroke-miterlimit:10;" x1="518.448" y1="414.388" x2="518.448" y2="409.722"/>
		</g>
		<g>
			
				<line style="fill:none;stroke:#364715;stroke-linecap:round;stroke-linejoin:round;stroke-miterlimit:10;" x1="527.781" y1="461.055" x2="527.781" y2="457.388"/>
			
				<line style="fill:none;stroke:#364715;stroke-linecap:round;stroke-linejoin:round;stroke-miterlimit:10;" x1="531.115" y1="460.722" x2="531.115" y2="454.055"/>
			
				<line style="fill:none;stroke:#364715;stroke-linecap:round;stroke-linejoin:round;stroke-miterlimit:10;" x1="535.115" y1="461.388" x2="535.115" y2="458.388"/>
		</g>
		<g>
			
				<line style="fill:none;stroke:#364715;stroke-linecap:round;stroke-linejoin:round;stroke-miterlimit:10;" x1="468.448" y1="463.055" x2="468.448" y2="466.722"/>
			
				<line style="fill:none;stroke:#364715;stroke-linecap:round;stroke-linejoin:round;stroke-miterlimit:10;" x1="472.115" y1="461.722" x2="472.115" y2="466.733"/>
		</g>
		<g>
			
				<line style="fill:none;stroke:#364715;stroke-linecap:round;stroke-linejoin:round;stroke-miterlimit:10;" x1="499.115" y1="488.722" x2="499.115" y2="492.404"/>
			
				<line style="fill:none;stroke:#364715;stroke-linecap:round;stroke-linejoin:round;stroke-miterlimit:10;" x1="502.781" y1="485.388" x2="502.781" y2="492.42"/>
			
				<line style="fill:none;stroke:#364715;stroke-linecap:round;stroke-linejoin:round;stroke-miterlimit:10;" x1="507.115" y1="488.722" x2="507.115" y2="491.795"/>
		</g>
		<g>
			
				<line style="fill:none;stroke:#364715;stroke-linecap:round;stroke-linejoin:round;stroke-miterlimit:10;" x1="387.115" y1="454.388" x2="387.115" y2="457.722"/>
			
				<line style="fill:none;stroke:#364715;stroke-linecap:round;stroke-linejoin:round;stroke-miterlimit:10;" x1="391.115" y1="451.722" x2="391.115" y2="458.422"/>
		</g>
		<g>
			
				<line style="fill:none;stroke:#364715;stroke-linecap:round;stroke-linejoin:round;stroke-miterlimit:10;" x1="401.448" y1="483.388" x2="401.448" y2="479.388"/>
			
				<line style="fill:none;stroke:#364715;stroke-linecap:round;stroke-linejoin:round;stroke-miterlimit:10;" x1="405.448" y1="483.055" x2="405.448" y2="477.711"/>
			
				<line style="fill:none;stroke:#364715;stroke-linecap:round;stroke-linejoin:round;stroke-miterlimit:10;" x1="411.448" y1="484.055" x2="411.448" y2="480.373"/>
		</g>
	</g>
</g>
</svg>
